<?xml version="1.0" encoding="utf-8"?>
<!-- Generator: Adobe Illustrator 19.1.0, SVG Export Plug-In . SVG Version: 6.00 Build 0)  -->
<svg version="1.1" id="Layer_1" xmlns="http://www.w3.org/2000/svg" xmlns:xlink="http://www.w3.org/1999/xlink" x="0px" y="0px"
	 viewBox="0 0 28.9 28.9" style="enable-background:new 0 0 28.9 28.9;" xml:space="preserve">
<style type="text/css">
	.st0{fill:#757960;}
	.st1{fill:none;stroke:#757960;stroke-width:0.884;stroke-linecap:round;stroke-miterlimit:10;}
</style>
<path class="st0" d="M4.5,9.8H4.2c0,0-0.1,0-0.1,0c0,0,0,0-0.1,0.1c0,0,0,0,0,0l0,9.8c0,0.1,0,0.1,0,0.1c0,0.1,0.1,0.1,0.1,0.1
	c0.1,0.1,0.2,0.1,0.3,0.1v0h0.1c0,0,0-0.1,0-0.1V9.8z"/>
<path class="st0" d="M17.8,18.9c-0.5,0.1-1,0.2-1.5,0.3c0,0,0,0,0,0c0.9,0,5.5,0,5.5,0c0.1,0,0.1,0,0.2-0.1c0,0,0.1-0.1,0.1-0.2v0
	v-0.1V8.5c0-0.1-0.1-0.3-0.3-0.3c-0.4,0-0.8,0-1.2,0v0.8H21c0.2,0,0.3,0.1,0.3,0.3c0,0.2-0.1,0.3-0.3,0.3h-0.4v0.9H21
	c0.2,0,0.3,0.1,0.3,0.3c0,0.2-0.1,0.3-0.3,0.3h-0.4v0.9H21c0.2,0,0.3,0.1,0.3,0.3c0,0.2-0.1,0.3-0.3,0.3h-0.4v0.9H21
	c0.2,0,0.3,0.1,0.3,0.3c0,0.2-0.1,0.3-0.3,0.3h-0.4v0.9H21c0.2,0,0.3,0.1,0.3,0.3c0,0.2-0.1,0.3-0.3,0.3h-0.4v0.9H21
	c0.2,0,0.3,0.1,0.3,0.3c0,0.2-0.1,0.3-0.3,0.3h-0.4v0.7c0,0.1,0,0.1,0,0.1H21c0.2,0,0.3,0.1,0.3,0.3c0,0.2-0.1,0.3-0.3,0.3h-1.1
	C19.5,18.4,18.8,18.7,17.8,18.9z"/>
<path class="st0" d="M13.5,8.7c-0.1-0.1-0.2-0.1-0.4-0.2c-0.2-0.1-0.4-0.1-0.7-0.2c-0.3-0.1-0.7-0.1-1.2-0.1c-0.6,0-1.3,0-2,0
	c-0.8,0-1.7,0-2.6,0c-0.2,0-0.3,0.1-0.3,0.3v10.4c0,0.1,0,0.1,0.1,0.2c0,0,0.1,0.1,0.2,0.1c0,0,5.5,0,5.8,0c0.2,0,0.5,0,0.7,0.1
	c0.3,0,0.5,0.1,0.7,0.2c0,0,0,0,0,0v-2.2v-0.1V9.5c0-0.2,0-0.3-0.1-0.4C13.7,8.9,13.6,8.8,13.5,8.7z M7.5,9h2.3c0.3,0,0.7,0,1.2,0
	c0.4,0,0.8,0.1,1.2,0.1c0.3,0.1,0.5,0.1,0.7,0.2C13,9.5,13.1,9.6,13,9.8C13,9.9,12.8,10,12.7,9.9c-0.2-0.1-0.4-0.1-0.6-0.2
	c-0.2,0-0.5-0.1-0.7-0.1c-0.5,0-1.1,0-1.5,0H7.5c-0.1,0-0.3-0.1-0.3-0.3C7.2,9.2,7.4,9,7.5,9z M7.5,10.5h2.3c0.3,0,0.7,0,1.1,0
	c0.4,0,0.8,0,1.2,0.1c0.3,0,0.5,0.1,0.7,0.2c0.1,0,0.2,0.2,0.2,0.4c0,0.1-0.2,0.2-0.4,0.2c-0.2-0.1-0.4-0.1-0.6-0.1
	c-0.2,0-0.5-0.1-0.7-0.1c-0.5,0-1.1,0-1.5,0H7.5c-0.1,0-0.3-0.1-0.3-0.3C7.2,10.6,7.4,10.5,7.5,10.5z M13.1,12.5
	c0,0.2-0.2,0.2-0.3,0.2c-0.2,0-0.4-0.1-0.6-0.1c-0.2,0-0.5,0-0.8-0.1c-0.5,0-1.1,0-1.5,0H7.5c-0.1,0-0.3-0.1-0.3-0.3
	c0-0.2,0.1-0.3,0.3-0.3h2.3c0.3,0,0.7,0,1.1,0c0.4,0,0.8,0,1.2,0.1c0.3,0,0.5,0.1,0.7,0.1C13,12.2,13.1,12.3,13.1,12.5z M7.5,16.2
	h2.3c0.9,0,2,0,3,0.1c0.2,0,0.3,0.1,0.3,0.3c0,0.2-0.1,0.3-0.3,0.3c-0.9-0.1-2.1-0.1-2.9-0.1H7.5c-0.1,0-0.3-0.1-0.3-0.3
	C7.3,16.3,7.4,16.2,7.5,16.2z M12.8,18.1c-0.9,0-2.1,0-3,0H9.3H7.5c-0.2,0-0.3-0.1-0.3-0.3c0-0.2,0.1-0.3,0.3-0.3h2.3
	c0.7,0,1.4,0,2.2,0c0.3,0,0.5,0,0.8,0c0.2,0,0.3,0.1,0.3,0.3C13.1,18,13,18.1,12.8,18.1z M13.1,15.2c0,0.1-0.2,0.3-0.3,0.2
	c-0.4-0.1-0.9-0.1-1.5-0.1c-0.5,0-1,0-1.5,0H7.5c-0.1,0-0.3-0.1-0.3-0.3c0-0.2,0.1-0.3,0.3-0.3h2.3c0.4,0,1,0,1.5,0
	c0.5,0,1,0,1.5,0.1C13,14.9,13.1,15,13.1,15.2z M13.1,13.8c0,0.1-0.2,0.2-0.3,0.2c-0.4-0.1-0.9-0.1-1.4-0.1c-0.5,0-1,0-1.5,0H7.5
	c-0.2,0-0.3-0.1-0.3-0.3c0-0.2,0.1-0.3,0.3-0.3h2.3c0.4,0,1,0,1.5,0c0.5,0,1.1,0.1,1.5,0.1C13,13.5,13.1,13.7,13.1,13.8z"/>
<path class="st0" d="M15.5,18.7c0.3-0.1,0.6-0.1,0.9-0.2c0.4-0.1,0.9-0.1,1.3-0.2c0.9-0.1,1.5-0.4,1.8-0.6c0.2-0.1,0.4-0.3,0.5-0.4
	V6.9c-0.1,0.1-0.3,0.2-0.5,0.3c-0.4,0.2-1,0.4-1.5,0.5c-0.4,0.1-0.7,0.2-1.1,0.2C16.5,8,16,8.1,15.6,8.2c-0.2,0.1-0.4,0.2-0.6,0.3
	c-0.2,0.1-0.3,0.3-0.4,0.4c-0.1,0.1-0.1,0.2-0.1,0.3c0,0.1-0.1,0.2-0.1,0.3v7.6c0,0.8,0,1.5,0,2c0.1-0.1,0.3-0.2,0.4-0.2
	C15.1,18.9,15.3,18.8,15.5,18.7z M19.1,16.9c-0.6,0.3-1.1,0.5-1.6,0.6c-0.5,0.1-0.9,0.2-1.4,0.3c-0.3,0.1-0.6,0.1-0.9,0.2
	c-0.1,0.1-0.3,0-0.4-0.2c-0.1-0.1,0-0.3,0.2-0.4c0.3-0.1,0.7-0.2,1-0.3c0.3-0.1,0.6-0.1,0.9-0.2c0.6-0.1,1.2-0.2,1.9-0.6
	c0.1-0.1,0.3,0,0.4,0.1C19.3,16.7,19.3,16.8,19.1,16.9z M15.1,16.1c0.3-0.1,0.7-0.2,1-0.3c0.3-0.1,0.6-0.1,0.9-0.2
	c0.6-0.1,1.2-0.2,1.9-0.6c0.1-0.1,0.3,0,0.4,0.1c0.1,0.1,0,0.3-0.1,0.4c-0.6,0.3-1.1,0.4-1.6,0.5c-0.5,0.1-0.9,0.2-1.4,0.3
	c-0.3,0.1-0.6,0.1-0.9,0.3c-0.1,0.1-0.3,0-0.4-0.2C14.9,16.3,14.9,16.2,15.1,16.1z M19.1,14.2c-0.6,0.3-1.1,0.4-1.6,0.5
	c-0.5,0.1-0.9,0.2-1.3,0.3c-0.3,0.1-0.6,0.2-0.9,0.3c-0.1,0.1-0.3,0-0.4-0.1c-0.1-0.1,0-0.3,0.1-0.4c0.3-0.2,0.7-0.3,1-0.3
	c0.3-0.1,0.6-0.1,0.9-0.2c0.6-0.1,1.2-0.2,1.9-0.6c0.1-0.1,0.3,0,0.4,0.1C19.3,14,19.3,14.1,19.1,14.2z M15,13.4
	c0.3-0.2,0.6-0.3,0.9-0.4c0.3-0.1,0.6-0.1,0.9-0.2c0.6-0.1,1.2-0.2,2-0.5c0.1-0.1,0.3,0,0.4,0.2c0.1,0.1,0,0.3-0.1,0.4
	c-0.6,0.3-1.2,0.4-1.6,0.5c-0.5,0.1-0.9,0.2-1.3,0.3c-0.3,0.1-0.6,0.2-0.8,0.3c-0.1,0.1-0.3,0-0.4-0.1C14.9,13.7,14.9,13.5,15,13.4z
	 M15,9.4c0.3-0.2,0.6-0.4,0.9-0.5c0.3-0.1,0.6-0.2,0.9-0.2c0.6-0.1,1.2-0.2,2.1-0.5c0.1,0,0.3,0,0.4,0.2c0,0.1,0,0.3-0.2,0.4
	c-0.5,0.2-1,0.3-1.3,0.3c-0.4,0.1-0.7,0.1-1,0.2c-0.2,0-0.4,0.1-0.6,0.2c-0.3,0.1-0.5,0.2-0.8,0.4C15.2,10,15,9.9,15,9.8
	C14.9,9.7,14.9,9.5,15,9.4z M15,10.8c0.3-0.2,0.6-0.4,0.9-0.5c0.3-0.1,0.6-0.2,0.9-0.2c0.6-0.1,1.2-0.2,2.1-0.5
	c0.1-0.1,0.3,0,0.4,0.2c0.1,0.1,0,0.3-0.2,0.4c-0.5,0.2-0.9,0.3-1.3,0.4c-0.4,0.1-0.7,0.1-1,0.2c-0.2,0-0.4,0.1-0.6,0.2
	c-0.3,0.1-0.5,0.2-0.8,0.4c-0.1,0.1-0.3,0-0.4-0.1C14.9,11,14.9,10.8,15,10.8z M15,12.1c0.3-0.2,0.6-0.3,0.9-0.4
	c0.3-0.1,0.6-0.2,0.9-0.2c0.6-0.1,1.2-0.2,2-0.5c0.1-0.1,0.3,0,0.4,0.2c0.1,0.1,0,0.3-0.2,0.4c-0.6,0.2-1.2,0.4-1.7,0.5
	c-0.5,0.1-0.9,0.2-1.3,0.3c-0.3,0.1-0.5,0.2-0.8,0.4c-0.1,0.1-0.3,0-0.4-0.1C14.9,12.4,14.9,12.2,15,12.1z"/>
<path class="st0" d="M5.7,18.9L5.7,18.9V9.1L5.1,9.8v10l0.7-0.6C5.8,19.1,5.7,19,5.7,18.9z"/>
<path class="st0" d="M13.8,20.1c-0.1-0.1-0.1-0.1-0.2-0.2c-0.1,0-0.1-0.1-0.2-0.1c-0.1,0-0.2-0.1-0.4-0.1c-0.2,0-0.4,0-0.6,0
	c-0.5,0-4.6,0-5.6,0c-0.1,0-0.2,0-0.2,0c-0.1,0-0.2,0-0.3-0.1c0,0,0,0,0,0l-0.6,0.5L13.8,20.1C13.8,20.1,13.8,20.1,13.8,20.1z"/>
<path class="st0" d="M24.2,9.7h-0.3c0,0,0,10.4,0,10.4H24c0.4,0,0.5-0.2,0.5-0.4l0-9.9C24.4,9.7,24.3,9.7,24.2,9.7z"/>
<path class="st0" d="M22.7,18.7L22.7,18.7c0,0.2,0,0.3-0.1,0.4l0.7,0.6V9.6l-0.6-0.7V18.7z"/>
<path class="st0" d="M21.8,19.7c0,0-5.1,0-5.8,0c-0.2,0-0.4,0-0.6,0c-0.2,0-0.4,0.1-0.5,0.1c-0.1,0.1-0.2,0.1-0.2,0.2
	c0,0,0,0.1-0.1,0.1h8.3c0,0-0.7-0.5-0.7-0.5C22,19.6,21.9,19.7,21.8,19.7z"/>
<polygon class="st0" points="5.6,20.1 5.6,20.1 5.6,20.1 "/>
<circle class="st1" cx="14.4" cy="14.4" r="14"/>
</svg>
