<?xml version="1.0" encoding="utf-8"?>
<!-- Generator: Adobe Illustrator 19.1.0, SVG Export Plug-In . SVG Version: 6.00 Build 0)  -->
<svg version="1.1" id="Layer_1" xmlns="http://www.w3.org/2000/svg" xmlns:xlink="http://www.w3.org/1999/xlink" x="0px" y="0px"
	 viewBox="0 0 65.8 65.8" style="enable-background:new 0 0 65.8 65.8;" xml:space="preserve">
<style type="text/css">
	.st0{fill:#FFFFFF;}
	.st1{fill:#010101;}
</style>
<g>
	<path class="st0" d="M41.5,43.8c-1.2,0.2-2.5,0.4-3.6,0.6c0,0-0.1,0-0.1,0c2,0,13.1,0,13.1,0c0.2,0,0.3-0.1,0.4-0.2
		c0.1-0.1,0.2-0.3,0.2-0.4v-0.1v-0.1V19.2c0-0.2-0.2-0.6-0.7-0.6c-1,0-1.9,0-2.8,0v1.9h1c0.4,0,0.7,0.3,0.7,0.7
		c0,0.4-0.3,0.7-0.7,0.7h-1v2.1h1c0.4,0,0.7,0.3,0.7,0.7c0,0.4-0.3,0.7-0.7,0.7h-1v2.1h1c0.4,0,0.7,0.3,0.7,0.7
		c0,0.4-0.3,0.7-0.7,0.7h-1v2.1h1c0.4,0,0.7,0.3,0.7,0.7c0,0.4-0.3,0.7-0.7,0.7h-1V34h1c0.4,0,0.7,0.3,0.7,0.7
		c0,0.4-0.3,0.7-0.7,0.7h-1v2.1h1c0.4,0,0.7,0.3,0.7,0.7c0,0.4-0.3,0.7-0.7,0.7h-1v1.7c0,0.1,0,0.2-0.1,0.3h1c0.4,0,0.7,0.3,0.7,0.7
		c0,0.4-0.3,0.7-0.7,0.7h-2.5C45.4,42.7,43.9,43.4,41.5,43.8z"/>
	<path class="st0" d="M31.1,19.7c-0.2-0.1-0.5-0.3-0.9-0.4c-0.5-0.2-1-0.3-1.6-0.4c-0.8-0.1-1.8-0.2-2.8-0.3
		c-1.4-0.1-3.1-0.1-4.9-0.1c-1.9,0-4,0-6.2,0c-0.5,0-0.7,0.3-0.7,0.6v24.6c0,0.2,0.1,0.3,0.2,0.4c0.1,0.1,0.3,0.2,0.4,0.2
		c0,0,13.2,0,13.9,0c0.5,0,1.1,0,1.7,0.1c0.6,0.1,1.2,0.3,1.8,0.5c0,0,0.1,0,0.1,0.1v-5.3v-0.1V21.5c0-0.4-0.1-0.8-0.3-1
		C31.7,20.2,31.5,20,31.1,19.7z M17,20.4h5.5c0.8,0,1.8,0,2.7,0c1,0.1,2,0.1,2.9,0.3c0.6,0.1,1.2,0.3,1.7,0.5
		c0.3,0.1,0.5,0.5,0.3,0.9c-0.1,0.3-0.5,0.5-0.9,0.3c-0.4-0.2-0.8-0.3-1.4-0.4c-0.5-0.1-1.1-0.2-1.8-0.2c-1.3-0.1-2.6-0.1-3.6-0.1
		H17c-0.4,0-0.7-0.3-0.7-0.7C16.3,20.7,16.6,20.4,17,20.4z M17,23.8h5.5c0.8,0,1.7,0,2.7,0c1,0,2,0.1,2.9,0.3
		c0.6,0.1,1.2,0.2,1.7,0.4c0.3,0.1,0.5,0.5,0.4,0.8c-0.1,0.3-0.5,0.5-0.8,0.4c-0.4-0.1-0.9-0.3-1.4-0.3c-0.6-0.1-1.2-0.1-1.8-0.2
		c-1.2-0.1-2.5-0.1-3.6-0.1H17c-0.4,0-0.7-0.3-0.7-0.7C16.3,24.1,16.6,23.8,17,23.8z M30.2,28.6c-0.1,0.4-0.5,0.6-0.8,0.5
		c-0.4-0.1-1-0.2-1.5-0.3c-0.6-0.1-1.2-0.1-1.8-0.1c-1.2-0.1-2.5-0.1-3.6-0.1H17c-0.4,0-0.7-0.3-0.6-0.7c0-0.4,0.3-0.7,0.7-0.7h5.5
		c0.8,0,1.7,0,2.7,0c1,0,1.9,0.1,2.8,0.2c0.6,0.1,1.2,0.2,1.7,0.3C30.1,27.9,30.3,28.2,30.2,28.6z M17,37.4h5.5c2.1,0,4.9,0,7.1,0.1
		c0.4,0,0.7,0.3,0.6,0.7c0,0.4-0.3,0.7-0.7,0.6c-2.1-0.1-4.9-0.1-7-0.1H17c-0.4,0-0.7-0.3-0.7-0.7C16.4,37.7,16.6,37.4,17,37.4z
		 M29.6,42.1c-2.3,0-4.9,0-7,0h-1.4H17c-0.4,0-0.7-0.3-0.7-0.7c0-0.4,0.3-0.7,0.7-0.7h5.5c1.6,0,3.4,0,5.2,0c0.6,0,1.3,0,1.8,0
		c0.4,0,0.7,0.3,0.7,0.7C30.2,41.8,29.9,42.1,29.6,42.1z M30.2,35c-0.1,0.4-0.4,0.6-0.7,0.6c-1-0.1-2.2-0.2-3.4-0.2
		c-1.2,0-2.5,0-3.5,0H17c-0.4,0-0.7-0.3-0.6-0.7c0-0.4,0.3-0.7,0.7-0.7h5.5c1,0,2.3,0,3.5,0s2.5,0.1,3.6,0.2
		C30,34.3,30.3,34.6,30.2,35z M30.2,31.8c-0.1,0.4-0.4,0.6-0.8,0.5c-0.9-0.2-2.1-0.3-3.4-0.3s-2.5-0.1-3.5-0.1H17
		c-0.4,0-0.7-0.3-0.7-0.7c0-0.4,0.3-0.7,0.7-0.7h5.5c1.1,0,2.3,0,3.6,0.1c1.3,0.1,2.5,0.1,3.6,0.4C30.1,31.1,30.3,31.4,30.2,31.8z"
		/>
	<path class="st0" d="M36,43.5c0.7-0.2,1.4-0.3,2.2-0.5c1-0.2,2.1-0.3,3.2-0.5c2.1-0.3,3.4-0.9,4.3-1.4c0.6-0.4,0.9-0.7,1.1-0.9
		V15.3c-0.3,0.3-0.7,0.5-1.1,0.7c-1.1,0.5-2.3,0.9-3.6,1.2c-0.8,0.2-1.7,0.4-2.6,0.6c-1.1,0.2-2.2,0.5-3.1,0.8
		c-0.5,0.2-1,0.4-1.4,0.7c-0.4,0.3-0.8,0.6-1,0.9c-0.1,0.2-0.2,0.4-0.3,0.6c-0.1,0.2-0.1,0.5-0.1,0.8v18.2c0,1.8,0,3.5,0,4.8
		c0.3-0.2,0.7-0.4,1-0.6C35,43.8,35.4,43.6,36,43.5z M44.6,39.1c-1.3,0.7-2.6,1.1-3.7,1.4c-1.2,0.3-2.2,0.4-3.3,0.6
		c-0.7,0.1-1.4,0.3-2.1,0.6c-0.3,0.1-0.7-0.1-0.8-0.4c-0.1-0.3,0.1-0.7,0.4-0.8c0.8-0.3,1.6-0.5,2.3-0.6c0.7-0.2,1.5-0.3,2.2-0.4
		c1.4-0.3,2.8-0.6,4.5-1.5c0.3-0.2,0.7-0.1,0.9,0.3C45.1,38.6,44.9,39,44.6,39.1z M35,37.3c0.8-0.3,1.6-0.5,2.3-0.7s1.5-0.3,2.2-0.4
		c1.4-0.3,2.9-0.6,4.5-1.4c0.3-0.2,0.7,0,0.9,0.3c0.2,0.3,0,0.7-0.3,0.9c-1.4,0.7-2.6,1-3.8,1.3c-1.1,0.3-2.2,0.4-3.2,0.6
		c-0.7,0.2-1.4,0.4-2.1,0.7c-0.4,0.1-0.7,0-0.9-0.4C34.4,37.8,34.6,37.4,35,37.3z M44.6,32.7c-1.4,0.7-2.7,1-3.8,1.2
		c-1.1,0.3-2.2,0.4-3.2,0.7c-0.7,0.2-1.3,0.4-2,0.7c-0.3,0.2-0.7,0-0.9-0.3s0-0.7,0.3-0.9c0.8-0.4,1.5-0.6,2.3-0.8
		c0.7-0.2,1.5-0.3,2.2-0.4c1.4-0.3,2.9-0.6,4.6-1.4c0.3-0.1,0.7,0,0.9,0.3C45,32.1,44.9,32.5,44.6,32.7z M34.9,30.9
		c0.8-0.4,1.5-0.7,2.3-0.9c0.7-0.2,1.4-0.3,2.1-0.5c1.4-0.3,2.9-0.5,4.7-1.3c0.3-0.1,0.7,0,0.9,0.4c0.1,0.3,0,0.7-0.4,0.9
		c-1.5,0.6-2.7,0.9-3.9,1.2c-1.1,0.2-2.1,0.4-3.1,0.7c-0.7,0.2-1.3,0.4-2,0.8c-0.3,0.2-0.7,0.1-0.9-0.3
		C34.4,31.5,34.6,31.1,34.9,30.9z M34.8,21.4c0.8-0.5,1.5-0.9,2.2-1.2c0.7-0.3,1.4-0.4,2.1-0.6c1.4-0.3,2.9-0.4,5-1.1
		c0.3-0.1,0.7,0.1,0.8,0.4c0.1,0.3-0.1,0.7-0.4,0.8c-1.2,0.4-2.3,0.6-3.2,0.8c-0.9,0.2-1.7,0.3-2.4,0.4c-0.5,0.1-0.9,0.2-1.4,0.4
		c-0.6,0.2-1.2,0.5-1.9,1c-0.3,0.2-0.7,0.1-0.9-0.1C34.5,22,34.5,21.6,34.8,21.4z M34.8,24.5c0.8-0.5,1.5-0.8,2.2-1.1
		c0.7-0.2,1.4-0.4,2.1-0.5c1.4-0.3,2.9-0.5,4.9-1.2c0.3-0.1,0.7,0.1,0.8,0.4c0.1,0.3-0.1,0.7-0.4,0.8c-1.2,0.4-2.2,0.7-3.1,0.9
		c-0.9,0.2-1.7,0.3-2.5,0.5c-0.5,0.1-1,0.2-1.4,0.4c-0.6,0.2-1.2,0.5-1.9,0.9c-0.3,0.2-0.7,0.1-0.9-0.2
		C34.4,25.1,34.5,24.7,34.8,24.5z M34.9,27.7c0.8-0.5,1.5-0.8,2.2-1c0.7-0.2,1.4-0.4,2.1-0.5c1.4-0.3,2.9-0.5,4.8-1.3
		c0.3-0.1,0.7,0,0.9,0.4c0.1,0.3,0,0.7-0.4,0.9c-1.5,0.6-2.8,0.9-3.9,1.1c-1.1,0.2-2.1,0.4-3.1,0.7c-0.6,0.2-1.3,0.5-2,0.9
		c-0.3,0.2-0.7,0.1-0.9-0.2C34.4,28.3,34.5,27.9,34.9,27.7z"/>
	<path class="st0" d="M9.9,22.3H9.1c-0.1,0-0.2,0-0.2,0.1c-0.1,0-0.1,0.1-0.1,0.1c0,0,0,0.1,0,0.1L8.7,45.9c0,0.1,0,0.3,0.1,0.4
		c0.1,0.1,0.1,0.2,0.2,0.3c0.2,0.2,0.5,0.3,0.8,0.3v0h0.1c0-0.1,0-0.1,0-0.2V22.3z"/>
	<path class="st0" d="M12.7,43.8v-0.2V20.6l-1.5,1.7V46l1.7-1.4C12.8,44.4,12.7,44.1,12.7,43.8z"/>
	<path class="st0" d="M32,46.7c-0.1-0.2-0.3-0.3-0.5-0.5c-0.2-0.1-0.3-0.2-0.6-0.2c-0.3-0.1-0.6-0.2-0.9-0.2
		c-0.4-0.1-0.9-0.1-1.3-0.1c-1.3,0-11,0-13.4,0c-0.3,0-0.5,0-0.5,0c-0.3,0-0.6-0.1-0.8-0.2c0,0,0,0,0,0l-1.5,1.2L32,46.7
		C32,46.8,32,46.8,32,46.7z"/>
	<path class="st0" d="M56.5,22.3h-0.8c0,0,0,24.5,0,24.5h0.1c0.9,0,1.1-0.5,1.1-1l-0.1-23.3C56.9,22.4,56.7,22.3,56.5,22.3z"/>
	<path class="st0" d="M52.9,43.6v0.2c0,0.3-0.1,0.6-0.2,0.8l1.7,1.4V22.2l-1.5-1.7V43.6z"/>
	<path class="st0" d="M50.9,45.7c0,0-12.2,0-13.9,0c-0.5,0-1,0-1.5,0.1c-0.5,0.1-0.9,0.2-1.3,0.3c-0.2,0.1-0.4,0.3-0.5,0.4
		c-0.1,0.1-0.1,0.2-0.1,0.3h19.7c0,0-1.6-1.3-1.6-1.3C51.5,45.7,51.2,45.7,50.9,45.7z"/>
	<path class="st0" d="M32.9,0C14.7,0,0,14.7,0,32.9s14.7,32.9,32.9,32.9s32.9-14.7,32.9-32.9S51.1,0,32.9,0z M57.5,47.5
		c-0.4,0.4-1,0.7-1.7,0.7h-1.6H32.8H11.5H9.8c-0.5,0-0.9-0.1-1.3-0.4c-0.4-0.2-0.7-0.6-0.9-1c-0.1-0.3-0.2-0.6-0.2-0.9v0l0.1-23.2
		c0-0.2,0.1-0.4,0.1-0.7c0.1-0.2,0.2-0.4,0.4-0.5C8.3,21.2,8.7,21,9.1,21l1.5,0c0,0,2.6-3,2.8-3.2c0.4-0.3,0.9-0.6,1.4-0.6
		c2.2,0,4.3,0,6.2,0c2.1,0,3.9,0,5.6,0.1c1.6,0.1,3,0.3,4.1,0.7c0.7,0.3,1.4,0.6,1.9,1.1c0.1,0.1,0.1,0.2,0.2,0.2
		c0.3-0.4,0.6-0.7,0.9-1c0.3-0.2,0.6-0.5,1-0.6c0.5-0.3,1-0.5,1.5-0.6c0.7-0.2,1.5-0.4,2.3-0.6c1-0.2,2.1-0.5,3.1-0.7
		c1.4-0.3,2.6-0.7,3.5-1.2c0.5-0.3,1-0.6,1.3-1c0.2-0.2,0.3-0.4,0.4-0.6c0.1-0.3,0.4-0.5,0.7-0.4c0.3,0.1,0.5,0.3,0.5,0.7v3.9
		c0.9,0,1.9,0,2.8,0c0.4,0,0.8,0.1,1.1,0.3C52.3,17.8,55,21,55,21l1.5,0c0.3,0,0.7,0.1,0.9,0.3c0.3,0.2,0.5,0.4,0.6,0.7
		c0.1,0.2,0.1,0.4,0.1,0.7l0.1,23.3c0,0.3-0.1,0.6-0.2,0.9C57.9,47.1,57.7,47.3,57.5,47.5z"/>
	<polygon class="st1" points="12.3,46.8 12.3,46.8 12.3,46.8 	"/>
</g>
</svg>
