<?xml version="1.0" encoding="utf-8"?>
<!-- Generator: Adobe Illustrator 19.1.0, SVG Export Plug-In . SVG Version: 6.00 Build 0)  -->
<svg version="1.1" id="Layer_1" xmlns="http://www.w3.org/2000/svg" xmlns:xlink="http://www.w3.org/1999/xlink" x="0px" y="0px"
	 viewBox="0 0 32 32" style="enable-background:new 0 0 32 32;" xml:space="preserve">
<style type="text/css">
	.st0{fill:none;stroke:#FFFFFF;stroke-width:1.0951;stroke-miterlimit:10;}
	.st1{fill:#FFFFFF;}
</style>
<circle class="st0" cx="16" cy="16" r="15.5"/>
<g>
	<g>
		<g>
			<g>
				<path class="st1" d="M16,9.6c-3.6,0-6.5,2.9-6.5,6.5s2.9,6.5,6.5,6.5s6.5-2.9,6.5-6.5C22.5,12.5,19.6,9.6,16,9.6z M16,21.2
					c-2.8,0-5.2-2.3-5.2-5.2s2.3-5.2,5.2-5.2s5.2,2.3,5.2,5.2S18.9,21.2,16,21.2z"/>
			</g>
		</g>
		<g>
			<g>
				<path class="st1" d="M16,7.6c0.4,0,0.6-0.3,0.6-0.6V4.4c0-0.4-0.3-0.6-0.6-0.6c-0.4,0-0.6,0.3-0.6,0.6V7
					C15.4,7.3,15.6,7.6,16,7.6z"/>
			</g>
		</g>
		<g>
			<g>
				<path class="st1" d="M22.4,10.3c0.2,0,0.3-0.1,0.5-0.2l1.8-1.8c0.3-0.3,0.3-0.7,0-0.9c-0.3-0.3-0.7-0.3-0.9,0l-1.8,1.8
					c-0.3,0.3-0.3,0.7,0,0.9C22.1,10.2,22.2,10.3,22.4,10.3z"/>
			</g>
		</g>
		<g>
			<g>
				<path class="st1" d="M27.6,15.4H25c-0.4,0-0.6,0.3-0.6,0.6c0,0.4,0.3,0.6,0.6,0.6h2.6c0.4,0,0.6-0.3,0.6-0.6
					C28.3,15.7,28,15.4,27.6,15.4z"/>
			</g>
		</g>
		<g>
			<g>
				<path class="st1" d="M22.9,22c-0.3-0.3-0.7-0.3-0.9,0c-0.3,0.3-0.3,0.7,0,0.9l1.8,1.8c0.1,0.1,0.3,0.2,0.5,0.2
					c0.2,0,0.3-0.1,0.5-0.2c0.3-0.3,0.3-0.7,0-0.9L22.9,22z"/>
			</g>
		</g>
		<g>
			<g>
				<path class="st1" d="M16,24.4c-0.4,0-0.6,0.3-0.6,0.6v2.6c0,0.4,0.3,0.6,0.6,0.6c0.4,0,0.6-0.3,0.6-0.6v-2.6
					C16.7,24.7,16.4,24.4,16,24.4z"/>
			</g>
		</g>
		<g>
			<g>
				<path class="st1" d="M9.2,22l-1.8,1.8c-0.3,0.3-0.3,0.7,0,0.9c0.1,0.1,0.3,0.2,0.5,0.2s0.3-0.1,0.5-0.2l1.8-1.8
					c0.3-0.3,0.3-0.7,0-0.9C9.8,21.7,9.4,21.7,9.2,22z"/>
			</g>
		</g>
		<g>
			<g>
				<path class="st1" d="M7.6,16c0-0.4-0.3-0.6-0.6-0.6H4.4c-0.4,0-0.6,0.3-0.6,0.6c0,0.4,0.3,0.6,0.6,0.6H7
					C7.3,16.7,7.6,16.4,7.6,16z"/>
			</g>
		</g>
		<g>
			<g>
				<path class="st1" d="M9.2,10.1c0.1,0.1,0.3,0.2,0.5,0.2s0.3-0.1,0.5-0.2c0.3-0.3,0.3-0.7,0-0.9L8.2,7.4C8,7.1,7.6,7.1,7.3,7.4
					C7.1,7.6,7.1,8,7.3,8.3L9.2,10.1z"/>
			</g>
		</g>
	</g>
</g>
</svg>
