<?xml version="1.0" encoding="utf-8"?>
<!-- Generator: Adobe Illustrator 19.1.0, SVG Export Plug-In . SVG Version: 6.00 Build 0)  -->
<svg version="1.1" id="Layer_1" xmlns="http://www.w3.org/2000/svg" xmlns:xlink="http://www.w3.org/1999/xlink" x="0px" y="0px"
	 viewBox="0 0 12.4 12.4" style="enable-background:new 0 0 12.4 12.4;" xml:space="preserve">
<style type="text/css">
	.st0{fill:#657984;}
</style>
<g>
	<path class="st0" d="M11.2,0H1.2C0.5,0,0,0.5,0,1.2v10.1c0,0.6,0.5,1.2,1.2,1.2h10.1c0.6,0,1.2-0.5,1.2-1.2V1.2
		C12.4,0.5,11.9,0,11.2,0z M9.5,4.5c0,0.1,0,0.1,0,0.2c0,2.2-1.7,4.8-4.8,4.8c-1,0-1.8-0.3-2.6-0.8c0.1,0,0.3,0,0.4,0
		c0.8,0,1.5-0.3,2.1-0.7C3.8,8.1,3.2,7.6,3,6.9c0.1,0,0.2,0,0.3,0c0.2,0,0.3,0,0.4-0.1C3,6.7,2.4,6,2.4,5.2c0,0,0,0,0,0
		c0.2,0.1,0.5,0.2,0.8,0.2C2.7,5.1,2.4,4.6,2.4,4c0-0.3,0.1-0.6,0.2-0.9c0.8,1,2.1,1.7,3.5,1.8c0-0.1,0-0.3,0-0.4
		c0-0.9,0.8-1.7,1.7-1.7C8.3,2.8,8.7,3,9,3.4C9.4,3.3,9.8,3.2,10.1,3C10,3.4,9.7,3.7,9.3,3.9c0.3,0,0.7-0.1,1-0.3
		C10.1,4,9.8,4.3,9.5,4.5z"/>
</g>
</svg>
