<?xml version="1.0" encoding="utf-8"?>
<!-- Generator: Adobe Illustrator 19.1.0, SVG Export Plug-In . SVG Version: 6.00 Build 0)  -->
<svg version="1.1" id="Layer_1" xmlns="http://www.w3.org/2000/svg" xmlns:xlink="http://www.w3.org/1999/xlink" x="0px" y="0px"
	 viewBox="0 0 115.5 38.2" style="enable-background:new 0 0 115.5 38.2;" xml:space="preserve">
<style type="text/css">
	.st0{fill:none;stroke:#FFFFFF;stroke-width:0.9261;stroke-miterlimit:10;}
	.st1{fill:none;stroke:#FFFFFF;stroke-width:0.7843;stroke-miterlimit:10;}
</style>
<g>
	<path class="st0" d="M13.1,31.9H8.7c0,0-2.9-0.1-2.9-3.7c0-3.6,0-7.6,0-7.6s0.2-0.6,0.8-0.7c0.6-0.1,1.5,0,1.5,0s1.8,0.1,1.8-0.8
		s-0.4-3.6-0.4-3.6s0-0.6,1-1.1c1-0.5,19.3-11.2,36.4-12.1s24.8,2.4,34.4,9.5c0,0,0.3,0.4,1.1,0.4c1.1,0,18.6-1.8,27.2,7.9l-0.7,0.6
		l0.1,8.3l0.6,1.4V31l-9,0.3c0,0,0.6-6.8-6-9.6c-4.8-2.1-9.3,0.1-11.1,2.7c-1.6,2.3-1.8,5.1-1.7,7.6l-49.8-0.3c0,0,0.6-4.8-2.7-8.2
		c-2.4-2.4-8.1-4.4-13,0.2c0,0-2.9,2.4-2.5,8l0,0.2H13.1z"/>
	<circle class="st0" cx="91.1" cy="29.9" r="6.1"/>
	<circle class="st0" cx="22.8" cy="29.9" r="6.1"/>
	<circle class="st1" cx="22.8" cy="29.9" r="2.8"/>
	<circle class="st1" cx="91.1" cy="29.9" r="2.8"/>
	<path class="st1" d="M46,5.8v7.4h30.9C76.9,13.2,68.6,3.9,46,5.8z"/>
	<path class="st1" d="M41.5,6.5v6.7H20.7C20.7,13.2,33.3,7.1,41.5,6.5z"/>
</g>
</svg>
