<?xml version="1.0" encoding="utf-8"?>
<!-- Generator: Adobe Illustrator 19.1.0, SVG Export Plug-In . SVG Version: 6.00 Build 0)  -->
<svg version="1.1" id="Layer_1" xmlns="http://www.w3.org/2000/svg" xmlns:xlink="http://www.w3.org/1999/xlink" x="0px" y="0px"
	 viewBox="0 0 12.4 12.3" style="enable-background:new 0 0 12.4 12.3;" xml:space="preserve">
<style type="text/css">
	.st0{fill:#657984;}
</style>
<g>
	<path class="st0" d="M11.2,0h-10C0.5,0,0,0.5,0,1.2v10c0,0.6,0.5,1.2,1.2,1.2h5.5V7.6H5V5.7h1.6V4.3c0-1.6,1-2.5,2.4-2.5
		c0.7,0,1.3,0,1.4,0.1v1.7h-1C8.7,3.6,8.5,4,8.5,4.5v1.2h1.9l-0.2,1.8H8.5v4.8h2.7c0.6,0,1.2-0.5,1.2-1.2v-10
		C12.3,0.5,11.8,0,11.2,0z"/>
</g>
</svg>
