<?xml version="1.0" encoding="utf-8"?>
<!-- Generator: Adobe Illustrator 19.1.0, SVG Export Plug-In . SVG Version: 6.00 Build 0)  -->
<svg version="1.1" id="Layer_1" xmlns="http://www.w3.org/2000/svg" xmlns:xlink="http://www.w3.org/1999/xlink" x="0px" y="0px"
	 viewBox="0 0 82.5 92.7" style="enable-background:new 0 0 82.5 92.7;" xml:space="preserve">
<style type="text/css">
	.st0{fill:none;stroke:#FFFFFF;stroke-width:1.3439;stroke-miterlimit:10;}
	.st1{fill:none;stroke:#FFFFFF;stroke-width:0.9737;stroke-miterlimit:10;}
	.st2{font-family:'GothamMedium';}
	.st3{font-size:28.4245px;}
	.st4{fill:none;stroke:#FFFFFF;stroke-width:1.2658;stroke-miterlimit:10;}
</style>
<g>
	<path class="st0" d="M12.9,54.7c-2.9,0-5.2,2.3-5.2,5.3c0,2.9,2.3,5.2,5.2,5.2c2.9,0,5.3-2.3,5.3-5.3C18.1,57,15.8,54.7,12.9,54.7
		L12.9,54.7z"/>
	<path class="st0" d="M21,73.5c0-3.2-2.6-5.8-5.8-5.8h-4.7c-3.2,0-5.8,2.6-5.8,5.8v2.3H21V73.5z"/>
	<path class="st0" d="M69.7,54.8c-2.9,0-5.2,2.3-5.2,5.3c0,2.9,2.3,5.2,5.2,5.2c2.9,0,5.3-2.3,5.3-5.3
		C74.9,57.1,72.6,54.8,69.7,54.8L69.7,54.8z"/>
	<path class="st0" d="M77.8,73.5c0-3.2-2.6-5.8-5.8-5.8h-4.7c-3.2,0-5.8,2.6-5.8,5.8v2.3h16.3V73.5z"/>
	<path class="st0" d="M40.6,5.2c-2.9,0-5.2,2.3-5.2,5.3c0,2.9,2.3,5.2,5.2,5.2c2.9,0,5.3-2.3,5.3-5.3C45.8,7.5,43.5,5.2,40.6,5.2
		L40.6,5.2z"/>
	<path class="st0" d="M48.7,24c0-3.2-2.6-5.8-5.8-5.8h-4.7c-3.2,0-5.8,2.6-5.8,5.8v2.3h16.3V24z"/>
	<text transform="matrix(1 0 0 1 31.1429 61.8739)" class="st1 st2 st3">$</text>
	<path class="st4" d="M19.2,29.2c0,0-9.7,8.2-10.1,21l2.6,0c0,0-0.2-10,9-19l2.3,3.1l4.2-9.4L16.9,26L19.2,29.2z"/>
	<path class="st4" d="M70.2,41.6c0,0-3.5-12.2-15-17.8l-1.1,2.4c0,0,9.2,3.9,13.6,16L64,43l6.9,7.7l3.2-9.8L70.2,41.6z"/>
	<path class="st4" d="M33.4,83.3c0,0,12,4,23.2-2.2l-1.3-2.2c0,0-8.4,5.4-20.9,2.1l1.4-3.5l-10.2,1.3l6.2,8.2L33.4,83.3z"/>
</g>
</svg>
