<?xml version="1.0" encoding="utf-8"?>
<!-- Generator: Adobe Illustrator 19.1.0, SVG Export Plug-In . SVG Version: 6.00 Build 0)  -->
<svg version="1.1" xmlns="http://www.w3.org/2000/svg" xmlns:xlink="http://www.w3.org/1999/xlink" x="0px" y="0px"
	 viewBox="0 0 576 576" style="enable-background:new 0 0 576 576;" xml:space="preserve">
<style type="text/css">
	.st0{fill:none;stroke:#000000;stroke-width:4.2964;stroke-miterlimit:10;}
	.st1{fill:none;stroke:#000000;stroke-width:2.8714;stroke-miterlimit:10;}
	.st2{fill:#FFFFFF;stroke:#000000;stroke-width:1.8887;stroke-miterlimit:10;}
	.st3{fill:#FFFFFF;stroke:#000000;stroke-width:1.9259;stroke-miterlimit:10;}
	.st4{fill:#FFFFFF;stroke:#000000;stroke-width:1.9192;stroke-miterlimit:10;}
	.st5{fill:none;stroke:#FFFFFF;stroke-miterlimit:10;}
	.st6{fill:none;stroke:#000000;stroke-miterlimit:10;}
	.st7{fill:none;stroke:#000000;stroke-width:3;stroke-miterlimit:10;}
</style>
<g id="Layer_1">
	<path class="st0" d="M307.6,55.9c-9.3,0-16.8,7.5-16.8,16.8c0,9.3,7.5,16.8,16.8,16.8c9.3,0,16.8-7.5,16.8-16.8
		C324.4,63.4,316.9,55.9,307.6,55.9L307.6,55.9z"/>
	<path class="st0" d="M333.8,116c0-10.3-8.3-18.7-18.7-18.7h-14.9c-10.3,0-18.7,8.4-18.7,18.7v7.5h52.2V116z"/>
	<path class="st1" d="M236.4,191c0,0-9.3,27.1,4.7,52.6l5.1-3c0,0-12.1-19.1-4.5-47.4l8,3.3l-2.8-23.3l-18.7,14L236.4,191z"/>
	<path class="st1" d="M378.9,224.8c0,0,9.3-27.1-4.7-52.6l-5.1,3c0,0,12.1,19.1,4.5,47.4l-8-3.3l2.8,23.3l18.7-14L378.9,224.8z"/>
	<path class="st1" d="M236.4,378.4c0,0-9.3,27.1,4.7,52.6l5.1-3c0,0-12.1-19.1-4.5-47.4l8,3.3l-2.8-23.3l-18.7,14L236.4,378.4z"/>
	<path class="st1" d="M378.9,412.2c0,0,9.3-27.1-4.7-52.6l-5.1,3c0,0,12.1,19.1,4.5,47.4l-8-3.3l2.8,23.3l18.7-14L378.9,412.2z"/>
	<g>
		<path d="M260.8,146.3c-3.7,0-6.3-2.6-6.3-6.2v0c0-3.4,2.7-6.2,6.3-6.2c2.2,0,3.5,0.6,4.7,1.6l-1.7,2c-0.9-0.8-1.8-1.2-3.1-1.2
			c-1.9,0-3.5,1.7-3.5,3.7v0c0,2.2,1.5,3.8,3.6,3.8c1,0,1.8-0.2,2.5-0.7v-1.7h-2.7v-2.3h5.2v5.2C264.7,145.4,263,146.3,260.8,146.3z
			"/>
		<path d="M276.8,142.4h-6.4c0.3,1.2,1.1,1.8,2.3,1.8c0.9,0,1.5-0.3,2.2-0.9l1.5,1.3c-0.9,1.1-2.1,1.7-3.8,1.7
			c-2.8,0-4.8-1.9-4.8-4.8v0c0-2.6,1.9-4.8,4.6-4.8c3.1,0,4.5,2.4,4.5,5v0C276.8,142,276.8,142.1,276.8,142.4z M272.3,138.8
			c-1.1,0-1.8,0.8-2,2h3.9C274.1,139.6,273.4,138.8,272.3,138.8z"/>
		<path d="M284.6,146.1v-5.1c0-1.2-0.6-1.9-1.6-1.9s-1.6,0.6-1.6,1.9v5.1h-2.6v-9.2h2.6v1.3c0.6-0.8,1.4-1.5,2.7-1.5
			c2,0,3.1,1.3,3.1,3.4v6H284.6z"/>
		<path d="M298,142.4h-6.4c0.3,1.2,1.1,1.8,2.3,1.8c0.9,0,1.5-0.3,2.2-0.9l1.5,1.3c-0.9,1.1-2.1,1.7-3.8,1.7c-2.8,0-4.8-1.9-4.8-4.8
			v0c0-2.6,1.9-4.8,4.6-4.8c3.1,0,4.5,2.4,4.5,5v0C298,142,298,142.1,298,142.4z M293.6,138.8c-1.1,0-1.8,0.8-2,2h3.9
			C295.3,139.6,294.7,138.8,293.6,138.8z"/>
		<path d="M305.4,139.4c-1.7,0-2.8,1-2.8,3.2v3.4H300v-9.2h2.6v1.9c0.5-1.3,1.4-2.1,2.9-2v2.7H305.4z"/>
		<path d="M312.1,146.1v-1c-0.6,0.7-1.5,1.2-2.8,1.2c-1.7,0-3.2-1-3.2-2.8v0c0-2,1.5-2.9,3.7-2.9c0.9,0,1.6,0.2,2.3,0.4v-0.2
			c0-1.1-0.7-1.7-2-1.7c-1,0-1.7,0.2-2.5,0.5l-0.7-2c1-0.4,2-0.7,3.6-0.7c2.9,0,4.1,1.5,4.1,4v5.3H312.1z M312.2,142.4
			c-0.4-0.2-1-0.3-1.7-0.3c-1.1,0-1.8,0.4-1.8,1.3v0c0,0.7,0.6,1.1,1.4,1.1c1.2,0,2-0.7,2-1.6V142.4z"/>
		<path d="M319.9,146.2c-1.6,0-2.7-0.6-2.7-2.8v-4.4h-1.1v-2.2h1.1v-2.4h2.6v2.4h2.2v2.2h-2.2v3.9c0,0.6,0.3,0.9,0.8,0.9
			c0.5,0,0.9-0.1,1.3-0.3v2.1C321.5,146,320.8,146.2,319.9,146.2z"/>
		<path d="M324,135.8v-2.3h2.7v2.3H324z M324.1,146.1v-9.2h2.6v9.2H324.1z"/>
		<path d="M333.7,146.3c-2.9,0-5-2.1-5-4.8v0c0-2.6,2.1-4.8,5-4.8c2.9,0,5,2.1,5,4.8v0C338.7,144.1,336.5,146.3,333.7,146.3z
			 M336.1,141.5c0-1.4-1-2.5-2.4-2.5c-1.5,0-2.4,1.2-2.4,2.5v0c0,1.4,1,2.5,2.4,2.5C335.2,144,336.1,142.9,336.1,141.5L336.1,141.5z
			"/>
		<path d="M346.4,146.1v-5.1c0-1.2-0.6-1.9-1.6-1.9s-1.6,0.6-1.6,1.9v5.1h-2.6v-9.2h2.6v1.3c0.6-0.8,1.4-1.5,2.7-1.5
			c2,0,3.1,1.3,3.1,3.4v6H346.4z"/>
		<path d="M359.1,134h1.8v12.1h-2.6v-9.4l-2.1,0.5l-0.5-2.2L359.1,134z"/>
	</g>
	<line class="st2" x1="255" y1="151.7" x2="361.4" y2="151.7"/>
	<path class="st0" d="M307.6,242.7c-9.3,0-16.8,7.5-16.8,16.8c0,9.3,7.5,16.8,16.8,16.8c9.3,0,16.8-7.5,16.8-16.8
		C324.4,250.2,316.9,242.7,307.6,242.7L307.6,242.7z"/>
	<path class="st0" d="M333.8,302.8c0-10.3-8.3-18.7-18.7-18.7h-14.9c-10.3,0-18.7,8.4-18.7,18.7v7.5h52.2V302.8z"/>
	<g>
		<path d="M259.8,333.1c-3.7,0-6.3-2.6-6.3-6.2v0c0-3.4,2.7-6.2,6.3-6.2c2.2,0,3.5,0.6,4.7,1.6l-1.7,2c-0.9-0.8-1.8-1.2-3.1-1.2
			c-1.9,0-3.5,1.7-3.5,3.7v0c0,2.2,1.5,3.8,3.6,3.8c1,0,1.8-0.2,2.5-0.7v-1.7h-2.7v-2.3h5.2v5.2C263.7,332.2,262,333.1,259.8,333.1z
			"/>
		<path d="M275.8,329.2h-6.4c0.3,1.2,1.1,1.8,2.3,1.8c0.9,0,1.5-0.3,2.2-0.9l1.5,1.3c-0.9,1.1-2.1,1.7-3.8,1.7
			c-2.8,0-4.8-1.9-4.8-4.8v0c0-2.6,1.9-4.8,4.6-4.8c3.1,0,4.5,2.4,4.5,5v0C275.8,328.8,275.8,328.9,275.8,329.2z M271.3,325.6
			c-1.1,0-1.8,0.8-2,2h3.9C273.1,326.4,272.4,325.6,271.3,325.6z"/>
		<path d="M283.6,332.9v-5.1c0-1.2-0.6-1.9-1.6-1.9s-1.6,0.6-1.6,1.9v5.1h-2.6v-9.2h2.6v1.3c0.6-0.8,1.4-1.5,2.7-1.5
			c2,0,3.1,1.3,3.1,3.4v6H283.6z"/>
		<path d="M297,329.2h-6.4c0.3,1.2,1.1,1.8,2.3,1.8c0.9,0,1.5-0.3,2.2-0.9l1.5,1.3c-0.9,1.1-2.1,1.7-3.8,1.7c-2.8,0-4.8-1.9-4.8-4.8
			v0c0-2.6,1.9-4.8,4.6-4.8c3.1,0,4.5,2.4,4.5,5v0C297,328.8,297,328.9,297,329.2z M292.6,325.6c-1.1,0-1.8,0.8-2,2h3.9
			C294.3,326.4,293.7,325.6,292.6,325.6z"/>
		<path d="M304.4,326.2c-1.7,0-2.8,1-2.8,3.2v3.4H299v-9.2h2.6v1.9c0.5-1.3,1.4-2.1,2.9-2v2.7H304.4z"/>
		<path d="M311.1,332.9v-1c-0.6,0.7-1.5,1.2-2.8,1.2c-1.7,0-3.2-1-3.2-2.8v0c0-2,1.5-2.9,3.7-2.9c0.9,0,1.6,0.2,2.3,0.4v-0.2
			c0-1.1-0.7-1.7-2-1.7c-1,0-1.7,0.2-2.5,0.5l-0.7-2c1-0.4,2-0.7,3.6-0.7c2.9,0,4.1,1.5,4.1,4v5.3H311.1z M311.2,329.1
			c-0.4-0.2-1-0.3-1.7-0.3c-1.1,0-1.8,0.4-1.8,1.3v0c0,0.7,0.6,1.1,1.4,1.1c1.2,0,2-0.7,2-1.6V329.1z"/>
		<path d="M318.9,333c-1.6,0-2.7-0.6-2.7-2.8v-4.4h-1.1v-2.2h1.1v-2.4h2.6v2.4h2.2v2.2h-2.2v3.9c0,0.6,0.3,0.9,0.8,0.9
			c0.5,0,0.9-0.1,1.3-0.3v2.1C320.5,332.8,319.8,333,318.9,333z"/>
		<path d="M323,322.6v-2.3h2.7v2.3H323z M323.1,332.9v-9.2h2.6v9.2H323.1z"/>
		<path d="M332.7,333.1c-2.9,0-5-2.1-5-4.8v0c0-2.6,2.1-4.8,5-4.8c2.9,0,5,2.1,5,4.8v0C337.7,330.9,335.5,333.1,332.7,333.1z
			 M335.1,328.3c0-1.4-1-2.5-2.4-2.5c-1.5,0-2.4,1.2-2.4,2.5v0c0,1.4,1,2.5,2.4,2.5C334.2,330.8,335.1,329.7,335.1,328.3
			L335.1,328.3z"/>
		<path d="M345.4,332.9v-5.1c0-1.2-0.6-1.9-1.6-1.9s-1.6,0.6-1.6,1.9v5.1h-2.6v-9.2h2.6v1.3c0.6-0.8,1.4-1.5,2.7-1.5
			c2,0,3.1,1.3,3.1,3.4v6H345.4z"/>
		<path d="M357.1,324.6l-1.9-1.5c1.2-1.6,2.3-2.5,4.5-2.5c2.6,0,4.1,1.5,4.1,3.7c0,2-1,3-3.2,4.7l-2,1.5h5.2v2.3h-8.9v-2.1l4-3.3
			c1.5-1.2,2.1-1.9,2.1-2.9c0-1-0.7-1.6-1.6-1.6C358.6,323,358,323.5,357.1,324.6z"/>
	</g>
	<line class="st3" x1="254" y1="338.5" x2="364.6" y2="338.5"/>
	<path class="st0" d="M307.6,429.9c-9.3,0-16.8,7.5-16.8,16.8c0,9.3,7.5,16.8,16.8,16.8c9.3,0,16.8-7.5,16.8-16.8
		C324.4,437.4,316.9,429.9,307.6,429.9L307.6,429.9z"/>
	<path class="st0" d="M333.8,490c0-10.3-8.3-18.7-18.7-18.7h-14.9c-10.3,0-18.7,8.4-18.7,18.7v7.5h52.2V490z"/>
	<g>
		<path d="M259.8,520.3c-3.7,0-6.3-2.6-6.3-6.2v0c0-3.4,2.7-6.2,6.3-6.2c2.2,0,3.5,0.6,4.7,1.6l-1.7,2c-0.9-0.8-1.8-1.2-3.1-1.2
			c-1.9,0-3.5,1.7-3.5,3.7v0c0,2.2,1.5,3.8,3.6,3.8c1,0,1.8-0.2,2.5-0.7v-1.7h-2.7v-2.3h5.2v5.2C263.7,519.4,262,520.3,259.8,520.3z
			"/>
		<path d="M275.8,516.4h-6.4c0.3,1.2,1.1,1.8,2.3,1.8c0.9,0,1.5-0.3,2.2-0.9l1.5,1.3c-0.9,1.1-2.1,1.7-3.8,1.7
			c-2.8,0-4.8-1.9-4.8-4.8v0c0-2.6,1.9-4.8,4.6-4.8c3.1,0,4.5,2.4,4.5,5v0C275.8,516,275.8,516.1,275.8,516.4z M271.3,512.8
			c-1.1,0-1.8,0.8-2,2h3.9C273.1,513.6,272.4,512.8,271.3,512.8z"/>
		<path d="M283.6,520.1v-5.1c0-1.2-0.6-1.9-1.6-1.9s-1.6,0.6-1.6,1.9v5.1h-2.6v-9.2h2.6v1.3c0.6-0.8,1.4-1.5,2.7-1.5
			c2,0,3.1,1.3,3.1,3.4v6H283.6z"/>
		<path d="M297,516.4h-6.4c0.3,1.2,1.1,1.8,2.3,1.8c0.9,0,1.5-0.3,2.2-0.9l1.5,1.3c-0.9,1.1-2.1,1.7-3.8,1.7c-2.8,0-4.8-1.9-4.8-4.8
			v0c0-2.6,1.9-4.8,4.6-4.8c3.1,0,4.5,2.4,4.5,5v0C297,516,297,516.1,297,516.4z M292.6,512.8c-1.1,0-1.8,0.8-2,2h3.9
			C294.3,513.6,293.7,512.8,292.6,512.8z"/>
		<path d="M304.4,513.4c-1.7,0-2.8,1-2.8,3.2v3.4H299v-9.2h2.6v1.9c0.5-1.3,1.4-2.1,2.9-2v2.7H304.4z"/>
		<path d="M311.1,520.1v-1c-0.6,0.7-1.5,1.2-2.8,1.2c-1.7,0-3.2-1-3.2-2.8v0c0-2,1.5-2.9,3.7-2.9c0.9,0,1.6,0.2,2.3,0.4v-0.2
			c0-1.1-0.7-1.7-2-1.7c-1,0-1.7,0.2-2.5,0.5l-0.7-2c1-0.4,2-0.7,3.6-0.7c2.9,0,4.1,1.5,4.1,4v5.3H311.1z M311.2,516.4
			c-0.4-0.2-1-0.3-1.7-0.3c-1.1,0-1.8,0.4-1.8,1.3v0c0,0.7,0.6,1.1,1.4,1.1c1.2,0,2-0.7,2-1.6V516.4z"/>
		<path d="M318.9,520.2c-1.6,0-2.7-0.6-2.7-2.8v-4.4h-1.1v-2.2h1.1v-2.4h2.6v2.4h2.2v2.2h-2.2v3.9c0,0.6,0.3,0.9,0.8,0.9
			c0.5,0,0.9-0.1,1.3-0.3v2.1C320.5,520,319.8,520.2,318.9,520.2z"/>
		<path d="M323,509.9v-2.3h2.7v2.3H323z M323.1,520.1v-9.2h2.6v9.2H323.1z"/>
		<path d="M332.7,520.3c-2.9,0-5-2.1-5-4.8v0c0-2.6,2.1-4.8,5-4.8c2.9,0,5,2.1,5,4.8v0C337.7,518.1,335.5,520.3,332.7,520.3z
			 M335.1,515.5c0-1.4-1-2.5-2.4-2.5c-1.5,0-2.4,1.2-2.4,2.5v0c0,1.4,1,2.5,2.4,2.5C334.2,518,335.1,516.9,335.1,515.5L335.1,515.5z
			"/>
		<path d="M345.4,520.1v-5.1c0-1.2-0.6-1.9-1.6-1.9s-1.6,0.6-1.6,1.9v5.1h-2.6v-9.2h2.6v1.3c0.6-0.8,1.4-1.5,2.7-1.5
			c2,0,3.1,1.3,3.1,3.4v6H345.4z"/>
		<path d="M355.6,510.3V508h8.1v2l-3,2.9c1.6,0.3,3.2,1.1,3.2,3.4c0,2.3-1.6,4-4.3,4c-2.2,0-3.7-0.9-4.7-2.1l1.8-1.7
			c0.8,0.9,1.7,1.4,2.9,1.4c1,0,1.7-0.6,1.7-1.5c0-1-0.8-1.5-2.4-1.5h-1.1l-0.4-1.7l2.9-2.9H355.6z"/>
	</g>
	<line class="st4" x1="254" y1="525.7" x2="363.8" y2="525.7"/>
	<g>
		<path d="M165.6,209.4v-5.5l-2.4,3.6h0l-2.3-3.5v5.4H159V201h2l2.2,3.6l2.2-3.6h2v8.4H165.6z"/>
		<path d="M172.4,209.5c-2,0-3.5-1.5-3.5-3.3v0c0-1.8,1.5-3.3,3.5-3.3c2,0,3.5,1.5,3.5,3.3v0C175.9,208,174.4,209.5,172.4,209.5z
			 M174.1,206.2c0-0.9-0.7-1.8-1.7-1.8c-1,0-1.7,0.8-1.7,1.8v0c0,0.9,0.7,1.8,1.7,1.8C173.5,207.9,174.1,207.1,174.1,206.2
			L174.1,206.2z"/>
		<path d="M181,204.7c-1.2,0-2,0.7-2,2.3v2.4h-1.8v-6.4h1.8v1.3c0.4-0.9,1-1.5,2.1-1.4L181,204.7L181,204.7z"/>
		<path d="M184.4,209.5c-1.1,0-1.9-0.4-1.9-1.9v-3h-0.8v-1.6h0.8v-1.6h1.8v1.6h1.5v1.6h-1.5v2.7c0,0.4,0.2,0.6,0.6,0.6
			c0.3,0,0.6-0.1,0.9-0.2v1.5C185.4,209.3,185,209.5,184.4,209.5z"/>
		<path d="M189.9,211.3c-1,0-2-0.2-2.8-0.7l0.6-1.4c0.7,0.4,1.3,0.6,2.2,0.6c1.2,0,1.8-0.6,1.8-1.8v-0.3c-0.5,0.6-1.1,1-2.1,1
			c-1.5,0-2.9-1.1-2.9-3v0c0-1.9,1.4-3,2.9-3c1,0,1.6,0.4,2.1,1v-0.8h1.8v5C193.5,210.3,192.3,211.3,189.9,211.3z M191.7,205.8
			c0-0.9-0.7-1.5-1.6-1.5c-0.9,0-1.6,0.6-1.6,1.5v0c0,0.9,0.7,1.5,1.6,1.5C191,207.3,191.7,206.7,191.7,205.8L191.7,205.8z"/>
		<path d="M198.9,209.4v-0.7c-0.4,0.5-1.1,0.8-1.9,0.8c-1.2,0-2.2-0.7-2.2-2v0c0-1.4,1.1-2.1,2.6-2.1c0.6,0,1.1,0.1,1.6,0.3v-0.1
			c0-0.8-0.5-1.2-1.4-1.2c-0.7,0-1.2,0.1-1.8,0.3l-0.5-1.4c0.7-0.3,1.4-0.5,2.5-0.5c2,0,2.9,1,2.9,2.8v3.7H198.9z M198.9,206.8
			c-0.3-0.1-0.7-0.2-1.2-0.2c-0.8,0-1.3,0.3-1.3,0.9v0c0,0.5,0.4,0.8,1,0.8c0.9,0,1.4-0.5,1.4-1.1V206.8z"/>
		<path d="M205.1,211.3c-1,0-2-0.2-2.8-0.7l0.6-1.4c0.7,0.4,1.3,0.6,2.2,0.6c1.2,0,1.8-0.6,1.8-1.8v-0.3c-0.5,0.6-1.1,1-2.1,1
			c-1.5,0-2.9-1.1-2.9-3v0c0-1.9,1.4-3,2.9-3c1,0,1.6,0.4,2.1,1v-0.8h1.8v5C208.7,210.3,207.5,211.3,205.1,211.3z M206.9,205.8
			c0-0.9-0.7-1.5-1.6-1.5c-0.9,0-1.6,0.6-1.6,1.5v0c0,0.9,0.7,1.5,1.6,1.5C206.2,207.3,206.9,206.7,206.9,205.8L206.9,205.8z"/>
		<path d="M216.3,206.8h-4.5c0.2,0.8,0.8,1.3,1.6,1.3c0.6,0,1.1-0.2,1.6-0.7l1,0.9c-0.6,0.7-1.5,1.2-2.6,1.2c-1.9,0-3.4-1.4-3.4-3.3
			v0c0-1.8,1.3-3.3,3.2-3.3c2.1,0,3.1,1.7,3.1,3.5v0C216.3,206.5,216.3,206.6,216.3,206.8z M213.2,204.3c-0.8,0-1.2,0.5-1.4,1.4h2.7
			C214.4,204.8,214,204.3,213.2,204.3z"/>
	</g>
	<g>
		<path d="M401.4,203.5H400v2.5h-1.8v-8.4h3.4c2,0,3.2,1.2,3.2,2.9v0C404.8,202.5,403.3,203.5,401.4,203.5z M402.9,200.6
			c0-0.8-0.6-1.3-1.5-1.3H400v2.6h1.5C402.4,201.8,402.9,201.3,402.9,200.6L402.9,200.6z"/>
		<path d="M409.8,201.4c-1.2,0-2,0.7-2,2.3v2.4H406v-6.4h1.8v1.3c0.4-0.9,1-1.5,2.1-1.4L409.8,201.4L409.8,201.4z"/>
		<path d="M411,198.9v-1.6h1.9v1.6H411z M411.1,206v-6.4h1.8v6.4H411.1z"/>
		<path d="M418.7,206v-3.6c0-0.9-0.4-1.3-1.1-1.3c-0.7,0-1.1,0.4-1.1,1.3v3.6h-1.8v-6.4h1.8v0.9c0.4-0.5,1-1,1.9-1
			c1.4,0,2.2,0.9,2.2,2.4v4.2H418.7z"/>
		<path d="M425.1,206.2c-1.9,0-3.3-1.5-3.3-3.3v0c0-1.8,1.4-3.3,3.4-3.3c1.2,0,2,0.4,2.6,1.1l-1.1,1.2c-0.4-0.4-0.8-0.7-1.5-0.7
			c-0.9,0-1.6,0.8-1.6,1.8v0c0,1,0.6,1.8,1.6,1.8c0.6,0,1-0.3,1.5-0.7l1.1,1.1C427.2,205.7,426.4,206.2,425.1,206.2z"/>
		<path d="M429,198.9v-1.6h1.9v1.6H429z M429,206v-6.4h1.8v6.4H429z"/>
		<path d="M436.4,206.1c-1,0-1.6-0.4-2-1v2.8h-1.8v-8.3h1.8v0.9c0.4-0.6,1.1-1,2-1c1.5,0,2.9,1.2,2.9,3.3v0
			C439.3,205,437.9,206.1,436.4,206.1z M437.5,202.8c0-1.1-0.7-1.8-1.6-1.8s-1.6,0.7-1.6,1.8v0c0,1.1,0.7,1.8,1.6,1.8
			S437.5,203.9,437.5,202.8L437.5,202.8z"/>
		<path d="M440.8,206v-8.8h1.8v8.8H440.8z"/>
		<path d="M450.3,203.4h-4.5c0.2,0.8,0.8,1.3,1.6,1.3c0.6,0,1.1-0.2,1.6-0.7l1,0.9c-0.6,0.7-1.5,1.2-2.6,1.2c-1.9,0-3.4-1.4-3.4-3.3
			v0c0-1.8,1.3-3.3,3.2-3.3c2.1,0,3.1,1.7,3.1,3.5v0C450.3,203.2,450.3,203.3,450.3,203.4z M447.2,200.9c-0.8,0-1.2,0.5-1.4,1.4h2.7
			C448.4,201.5,447.9,200.9,447.2,200.9z"/>
		<path d="M461.1,206.2l-1-1c-0.7,0.6-1.5,0.9-2.5,0.9c-1.6,0-2.8-0.9-2.8-2.4c0-1.1,0.6-1.8,1.6-2.3c-0.4-0.6-0.6-1.1-0.6-1.7
			c0-1.2,0.9-2.2,2.5-2.2c1.4,0,2.4,0.9,2.4,2.1c0,1.1-0.7,1.8-1.8,2.2l1.1,1.1c0.3-0.4,0.6-0.9,0.8-1.4l1.4,0.7
			c-0.3,0.6-0.7,1.2-1.1,1.8l1.2,1.2L461.1,206.2z M457.5,202.5c-0.6,0.3-0.8,0.7-0.8,1.1c0,0.6,0.5,1,1.2,1c0.4,0,0.8-0.2,1.2-0.5
			L457.5,202.5z M458.4,198.9c-0.5,0-0.8,0.3-0.8,0.9c0,0.4,0.1,0.7,0.5,1.1c0.7-0.3,1.1-0.6,1.1-1.1
			C459.2,199.2,458.9,198.9,458.4,198.9z"/>
		<path d="M407.7,220.4V212h1.8v8.4H407.7z"/>
		<path d="M415.5,220.4v-3.6c0-0.9-0.4-1.3-1.1-1.3c-0.7,0-1.1,0.4-1.1,1.3v3.6h-1.8V214h1.8v0.9c0.4-0.5,1-1,1.9-1
			c1.4,0,2.2,0.9,2.2,2.4v4.2H415.5z"/>
		<path d="M421.1,220.5c-1.1,0-1.9-0.4-1.9-1.9v-3h-0.8V214h0.8v-1.6h1.8v1.6h1.5v1.6h-1.5v2.7c0,0.4,0.2,0.6,0.6,0.6
			c0.3,0,0.6-0.1,0.9-0.2v1.5C422.2,220.4,421.7,220.5,421.1,220.5z"/>
		<path d="M429.7,217.8h-4.5c0.2,0.8,0.8,1.3,1.6,1.3c0.6,0,1.1-0.2,1.6-0.7l1,0.9c-0.6,0.7-1.5,1.2-2.6,1.2c-1.9,0-3.4-1.4-3.4-3.3
			v0c0-1.8,1.3-3.3,3.2-3.3c2.1,0,3.1,1.7,3.1,3.5v0C429.7,217.6,429.7,217.7,429.7,217.8z M426.6,215.3c-0.8,0-1.2,0.5-1.4,1.4h2.7
			C427.9,215.9,427.4,215.3,426.6,215.3z"/>
		<path d="M434.9,215.8c-1.2,0-2,0.7-2,2.3v2.4h-1.8V214h1.8v1.3c0.4-0.9,1-1.5,2.1-1.4L434.9,215.8L434.9,215.8z"/>
		<path d="M441.9,217.8h-4.5c0.2,0.8,0.8,1.3,1.6,1.3c0.6,0,1.1-0.2,1.6-0.7l1,0.9c-0.6,0.7-1.5,1.2-2.6,1.2c-1.9,0-3.4-1.4-3.4-3.3
			v0c0-1.8,1.3-3.3,3.2-3.3c2.1,0,3.1,1.7,3.1,3.5v0C441.9,217.6,441.9,217.7,441.9,217.8z M438.8,215.3c-0.8,0-1.2,0.5-1.4,1.4h2.7
			C440,215.9,439.6,215.3,438.8,215.3z"/>
		<path d="M445.5,220.5c-0.9,0-1.9-0.3-2.8-1l0.8-1.2c0.7,0.5,1.4,0.8,2,0.8c0.5,0,0.8-0.2,0.8-0.5v0c0-0.4-0.6-0.5-1.3-0.7
			c-0.9-0.3-1.9-0.7-1.9-1.9v0c0-1.3,1.1-2,2.4-2c0.8,0,1.7,0.3,2.4,0.7l-0.7,1.3c-0.6-0.4-1.3-0.6-1.7-0.6c-0.4,0-0.7,0.2-0.7,0.4
			v0c0,0.4,0.6,0.5,1.3,0.8c0.9,0.3,1.9,0.7,1.9,1.9v0C448,219.9,446.9,220.5,445.5,220.5z"/>
		<path d="M451.4,220.5c-1.1,0-1.9-0.4-1.9-1.9v-3h-0.8V214h0.8v-1.6h1.8v1.6h1.5v1.6h-1.5v2.7c0,0.4,0.2,0.6,0.6,0.6
			c0.3,0,0.6-0.1,0.9-0.2v1.5C452.4,220.4,452,220.5,451.4,220.5z"/>
	</g>
	<g>
		<path d="M165.6,396.5V391l-2.4,3.6h0l-2.3-3.5v5.4H159v-8.4h2l2.2,3.5l2.2-3.5h2v8.4H165.6z"/>
		<path d="M172.4,396.6c-2,0-3.5-1.5-3.5-3.3v0c0-1.8,1.5-3.3,3.5-3.3c2,0,3.5,1.5,3.5,3.3v0C175.9,395.1,174.4,396.6,172.4,396.6z
			 M174.1,393.3c0-0.9-0.7-1.8-1.7-1.8c-1,0-1.7,0.8-1.7,1.8v0c0,0.9,0.7,1.8,1.7,1.8C173.5,395,174.1,394.2,174.1,393.3
			L174.1,393.3z"/>
		<path d="M181,391.8c-1.2,0-2,0.7-2,2.3v2.4h-1.8V390h1.8v1.3c0.4-0.9,1-1.5,2.1-1.4L181,391.8L181,391.8z"/>
		<path d="M184.4,396.6c-1.1,0-1.9-0.4-1.9-1.9v-3h-0.8V390h0.8v-1.6h1.8v1.6h1.5v1.6h-1.5v2.7c0,0.4,0.2,0.6,0.6,0.6
			c0.3,0,0.6-0.1,0.9-0.2v1.5C185.4,396.4,185,396.6,184.4,396.6z"/>
		<path d="M189.9,398.4c-1,0-2-0.2-2.8-0.7l0.6-1.4c0.7,0.4,1.3,0.6,2.2,0.6c1.2,0,1.8-0.6,1.8-1.8v-0.3c-0.5,0.6-1.1,1-2.1,1
			c-1.5,0-2.9-1.1-2.9-3v0c0-1.9,1.4-3,2.9-3c1,0,1.6,0.4,2.1,1V390h1.8v5C193.5,397.4,192.3,398.4,189.9,398.4z M191.7,392.9
			c0-0.9-0.7-1.5-1.6-1.5c-0.9,0-1.6,0.6-1.6,1.5v0c0,0.9,0.7,1.5,1.6,1.5C191,394.4,191.7,393.8,191.7,392.9L191.7,392.9z"/>
		<path d="M198.9,396.5v-0.7c-0.4,0.5-1.1,0.8-1.9,0.8c-1.2,0-2.2-0.7-2.2-2v0c0-1.4,1.1-2.1,2.6-2.1c0.6,0,1.1,0.1,1.6,0.3v-0.1
			c0-0.8-0.5-1.2-1.4-1.2c-0.7,0-1.2,0.1-1.8,0.3l-0.5-1.4c0.7-0.3,1.4-0.5,2.5-0.5c2,0,2.9,1,2.9,2.8v3.7H198.9z M198.9,393.9
			c-0.3-0.1-0.7-0.2-1.2-0.2c-0.8,0-1.3,0.3-1.3,0.9v0c0,0.5,0.4,0.8,1,0.8c0.9,0,1.4-0.5,1.4-1.1V393.9z"/>
		<path d="M205.1,398.4c-1,0-2-0.2-2.8-0.7l0.6-1.4c0.7,0.4,1.3,0.6,2.2,0.6c1.2,0,1.8-0.6,1.8-1.8v-0.3c-0.5,0.6-1.1,1-2.1,1
			c-1.5,0-2.9-1.1-2.9-3v0c0-1.9,1.4-3,2.9-3c1,0,1.6,0.4,2.1,1V390h1.8v5C208.7,397.4,207.5,398.4,205.1,398.4z M206.9,392.9
			c0-0.9-0.7-1.5-1.6-1.5c-0.9,0-1.6,0.6-1.6,1.5v0c0,0.9,0.7,1.5,1.6,1.5C206.2,394.4,206.9,393.8,206.9,392.9L206.9,392.9z"/>
		<path d="M216.3,393.9h-4.5c0.2,0.8,0.8,1.3,1.6,1.3c0.6,0,1.1-0.2,1.6-0.7l1,0.9c-0.6,0.7-1.5,1.2-2.6,1.2c-1.9,0-3.4-1.4-3.4-3.3
			v0c0-1.8,1.3-3.3,3.2-3.3c2.1,0,3.1,1.7,3.1,3.5v0C216.3,393.6,216.3,393.7,216.3,393.9z M213.2,391.4c-0.8,0-1.2,0.5-1.4,1.4h2.7
			C214.4,391.9,214,391.4,213.2,391.4z"/>
	</g>
	<g>
		<path d="M401.4,390.6H400v2.5h-1.8v-8.4h3.4c2,0,3.2,1.2,3.2,2.9v0C404.8,389.6,403.3,390.6,401.4,390.6z M402.9,387.6
			c0-0.8-0.6-1.3-1.5-1.3H400v2.6h1.5C402.4,388.9,402.9,388.4,402.9,387.6L402.9,387.6z"/>
		<path d="M409.8,388.4c-1.2,0-2,0.7-2,2.3v2.4H406v-6.4h1.8v1.3c0.4-0.9,1-1.5,2.1-1.4L409.8,388.4L409.8,388.4z"/>
		<path d="M411,386v-1.6h1.9v1.6H411z M411.1,393.1v-6.4h1.8v6.4H411.1z"/>
		<path d="M418.7,393.1v-3.6c0-0.9-0.4-1.3-1.1-1.3c-0.7,0-1.1,0.4-1.1,1.3v3.6h-1.8v-6.4h1.8v0.9c0.4-0.5,1-1,1.9-1
			c1.4,0,2.2,0.9,2.2,2.4v4.2H418.7z"/>
		<path d="M425.1,393.2c-1.9,0-3.3-1.5-3.3-3.3v0c0-1.8,1.4-3.3,3.4-3.3c1.2,0,2,0.4,2.6,1.1l-1.1,1.2c-0.4-0.4-0.8-0.7-1.5-0.7
			c-0.9,0-1.6,0.8-1.6,1.8v0c0,1,0.6,1.8,1.6,1.8c0.6,0,1-0.3,1.5-0.7l1.1,1.1C427.2,392.7,426.4,393.2,425.1,393.2z"/>
		<path d="M429,386v-1.6h1.9v1.6H429z M429,393.1v-6.4h1.8v6.4H429z"/>
		<path d="M436.4,393.2c-1,0-1.6-0.4-2-1v2.8h-1.8v-8.3h1.8v0.9c0.4-0.6,1.1-1,2-1c1.5,0,2.9,1.2,2.9,3.3v0
			C439.3,392,437.9,393.2,436.4,393.2z M437.5,389.9c0-1.1-0.7-1.8-1.6-1.8s-1.6,0.7-1.6,1.8v0c0,1.1,0.7,1.8,1.6,1.8
			S437.5,391,437.5,389.9L437.5,389.9z"/>
		<path d="M440.8,393.1v-8.8h1.8v8.8H440.8z"/>
		<path d="M450.3,390.5h-4.5c0.2,0.8,0.8,1.3,1.6,1.3c0.6,0,1.1-0.2,1.6-0.7l1,0.9c-0.6,0.7-1.5,1.2-2.6,1.2c-1.9,0-3.4-1.4-3.4-3.3
			v0c0-1.8,1.3-3.3,3.2-3.3c2.1,0,3.1,1.7,3.1,3.5v0C450.3,390.2,450.3,390.3,450.3,390.5z M447.2,388c-0.8,0-1.2,0.5-1.4,1.4h2.7
			C448.4,388.6,447.9,388,447.2,388z"/>
		<path d="M461.1,393.3l-1-1c-0.7,0.6-1.5,0.9-2.5,0.9c-1.6,0-2.8-0.9-2.8-2.4c0-1.1,0.6-1.8,1.6-2.3c-0.4-0.6-0.6-1.1-0.6-1.7
			c0-1.2,0.9-2.2,2.5-2.2c1.4,0,2.4,0.9,2.4,2.1c0,1.1-0.7,1.8-1.8,2.2l1.1,1.1c0.3-0.4,0.6-0.9,0.8-1.4l1.4,0.7
			c-0.3,0.6-0.7,1.2-1.1,1.8l1.2,1.2L461.1,393.3z M457.5,389.6c-0.6,0.3-0.8,0.7-0.8,1.1c0,0.6,0.5,1,1.2,1c0.4,0,0.8-0.2,1.2-0.5
			L457.5,389.6z M458.4,386c-0.5,0-0.8,0.3-0.8,0.9c0,0.4,0.1,0.7,0.5,1.1c0.7-0.3,1.1-0.6,1.1-1.1C459.2,386.3,458.9,386,458.4,386
			z"/>
		<path d="M407.7,407.5v-8.4h1.8v8.4H407.7z"/>
		<path d="M415.5,407.5v-3.6c0-0.9-0.4-1.3-1.1-1.3c-0.7,0-1.1,0.4-1.1,1.3v3.6h-1.8v-6.4h1.8v0.9c0.4-0.5,1-1,1.9-1
			c1.4,0,2.2,0.9,2.2,2.4v4.2H415.5z"/>
		<path d="M421.1,407.6c-1.1,0-1.9-0.4-1.9-1.9v-3h-0.8v-1.6h0.8v-1.6h1.8v1.6h1.5v1.6h-1.5v2.7c0,0.4,0.2,0.6,0.6,0.6
			c0.3,0,0.6-0.1,0.9-0.2v1.5C422.2,407.5,421.7,407.6,421.1,407.6z"/>
		<path d="M429.7,404.9h-4.5c0.2,0.8,0.8,1.3,1.6,1.3c0.6,0,1.1-0.2,1.6-0.7l1,0.9c-0.6,0.7-1.5,1.2-2.6,1.2c-1.9,0-3.4-1.4-3.4-3.3
			v0c0-1.8,1.3-3.3,3.2-3.3c2.1,0,3.1,1.7,3.1,3.5v0C429.7,404.6,429.7,404.7,429.7,404.9z M426.6,402.4c-0.8,0-1.2,0.5-1.4,1.4h2.7
			C427.9,403,427.4,402.4,426.6,402.4z"/>
		<path d="M434.9,402.8c-1.2,0-2,0.7-2,2.3v2.4h-1.8v-6.4h1.8v1.3c0.4-0.9,1-1.5,2.1-1.4L434.9,402.8L434.9,402.8z"/>
		<path d="M441.9,404.9h-4.5c0.2,0.8,0.8,1.3,1.6,1.3c0.6,0,1.1-0.2,1.6-0.7l1,0.9c-0.6,0.7-1.5,1.2-2.6,1.2c-1.9,0-3.4-1.4-3.4-3.3
			v0c0-1.8,1.3-3.3,3.2-3.3c2.1,0,3.1,1.7,3.1,3.5v0C441.9,404.6,441.9,404.7,441.9,404.9z M438.8,402.4c-0.8,0-1.2,0.5-1.4,1.4h2.7
			C440,403,439.6,402.4,438.8,402.4z"/>
		<path d="M445.5,407.6c-0.9,0-1.9-0.3-2.8-1l0.8-1.2c0.7,0.5,1.4,0.8,2,0.8c0.5,0,0.8-0.2,0.8-0.5v0c0-0.4-0.6-0.5-1.3-0.7
			c-0.9-0.3-1.9-0.7-1.9-1.9v0c0-1.3,1.1-2,2.4-2c0.8,0,1.7,0.3,2.4,0.7l-0.7,1.3c-0.6-0.4-1.3-0.6-1.7-0.6c-0.4,0-0.7,0.2-0.7,0.4
			v0c0,0.4,0.6,0.5,1.3,0.8c0.9,0.3,1.9,0.7,1.9,1.9v0C448,407,446.9,407.6,445.5,407.6z"/>
		<path d="M451.4,407.6c-1.1,0-1.9-0.4-1.9-1.9v-3h-0.8v-1.6h0.8v-1.6h1.8v1.6h1.5v1.6h-1.5v2.7c0,0.4,0.2,0.6,0.6,0.6
			c0.3,0,0.6-0.1,0.9-0.2v1.5C452.4,407.5,452,407.6,451.4,407.6z"/>
	</g>
	<path class="st5" d="M-373-27"/>
	<path class="st6" d="M253,72.7"/>
	<path class="st5" d="M-373-27"/>
	<path class="st5" d="M228.1,526.7"/>
</g>
<g id="Layer_4">
	<polygon class="st7" points="178.4,492.6 117.5,492.6 116.8,68.9 254.7,68.9 254.7,76.6 124.4,76.6 124.6,485.9 178.4,485.9 
		178.4,472.1 209.5,490 178.5,507.9 	"/>
	<g>
		<path d="M62.2,284.1h-3.3v-8.4h3.3c2.6,0,4.5,1.8,4.5,4.2v0C66.6,282.3,64.8,284.1,62.2,284.1z M64.7,279.9c0-1.5-1-2.5-2.5-2.5
			h-1.4v5.1h1.4C63.7,282.5,64.7,281.4,64.7,279.9L64.7,279.9z"/>
		<path d="M74,281.5h-4.5c0.2,0.8,0.8,1.3,1.6,1.3c0.6,0,1.1-0.2,1.6-0.7l1,0.9c-0.6,0.7-1.5,1.2-2.6,1.2c-1.9,0-3.4-1.4-3.4-3.3v0
			c0-1.8,1.3-3.3,3.2-3.3c2.1,0,3.1,1.7,3.1,3.5v0C74.1,281.3,74.1,281.4,74,281.5z M70.9,279c-0.8,0-1.2,0.5-1.4,1.4h2.7
			C72.2,279.6,71.7,279,70.9,279z"/>
		<path d="M79.2,284.1v-0.7c-0.4,0.5-1.1,0.8-1.9,0.8c-1.2,0-2.2-0.7-2.2-2v0c0-1.4,1.1-2.1,2.6-2.1c0.6,0,1.1,0.1,1.6,0.3v-0.1
			c0-0.8-0.5-1.2-1.4-1.2c-0.7,0-1.2,0.1-1.8,0.3l-0.5-1.4c0.7-0.3,1.4-0.5,2.5-0.5c2,0,2.9,1,2.9,2.8v3.7H79.2z M79.2,281.5
			c-0.3-0.1-0.7-0.2-1.2-0.2c-0.8,0-1.3,0.3-1.3,0.9v0c0,0.5,0.4,0.8,1,0.8c0.9,0,1.4-0.5,1.4-1.1V281.5z"/>
		<path d="M84.6,284.2c-1.1,0-1.9-0.4-1.9-1.9v-3H82v-1.6h0.8v-1.6h1.8v1.6h1.5v1.6h-1.5v2.7c0,0.4,0.2,0.6,0.6,0.6
			c0.3,0,0.6-0.1,0.9-0.2v1.5C85.7,284.1,85.3,284.2,84.6,284.2z"/>
		<path d="M91.5,284.1v-3.6c0-0.9-0.4-1.3-1.1-1.3c-0.7,0-1.1,0.4-1.1,1.3v3.6h-1.8v-8.8h1.8v3.2c0.4-0.5,1-1,1.9-1
			c1.4,0,2.2,0.9,2.2,2.4v4.2H91.5z"/>
		<path d="M59,298.5h-4v-8.4h3.9c1.7,0,2.8,0.9,2.8,2.2v0c0,0.9-0.5,1.5-1.1,1.8c1,0.4,1.6,0.9,1.6,2.1v0
			C62.1,297.8,60.9,298.5,59,298.5z M59.8,292.6c0-0.6-0.4-0.9-1.2-0.9h-1.8v1.8h1.7C59.3,293.5,59.8,293.3,59.8,292.6L59.8,292.6z
			 M60.3,296c0-0.6-0.4-0.9-1.4-0.9h-2.1v1.8H59C59.8,296.9,60.3,296.6,60.3,296L60.3,296z"/>
		<path d="M69.4,295.9H65c0.2,0.8,0.8,1.3,1.6,1.3c0.6,0,1.1-0.2,1.6-0.7l1,0.9c-0.6,0.7-1.5,1.2-2.6,1.2c-1.9,0-3.4-1.4-3.4-3.3v0
			c0-1.8,1.3-3.3,3.2-3.3c2.1,0,3.1,1.7,3.1,3.5v0C69.5,295.7,69.4,295.8,69.4,295.9z M66.3,293.4c-0.8,0-1.2,0.5-1.4,1.4h2.7
			C67.6,294,67.1,293.4,66.3,293.4z"/>
		<path d="M74.9,298.5v-3.6c0-0.9-0.4-1.3-1.1-1.3c-0.7,0-1.1,0.4-1.1,1.3v3.6h-1.8v-6.4h1.8v0.9c0.4-0.5,1-1,1.9-1
			c1.4,0,2.2,0.9,2.2,2.4v4.2H74.9z"/>
		<path d="M84.3,295.9h-4.5c0.2,0.8,0.8,1.3,1.6,1.3c0.6,0,1.1-0.2,1.6-0.7l1,0.9c-0.6,0.7-1.5,1.2-2.6,1.2c-1.9,0-3.4-1.4-3.4-3.3
			v0c0-1.8,1.3-3.3,3.2-3.3c2.1,0,3.1,1.7,3.1,3.5v0C84.3,295.7,84.3,295.8,84.3,295.9z M81.2,293.4c-0.8,0-1.2,0.5-1.4,1.4h2.7
			C82.4,294,81.9,293.4,81.2,293.4z"/>
		<path d="M88.4,291.2c-0.4,0-0.7,0.2-0.7,0.7v0.3h1.5v1.5h-1.5v4.9H86v-4.9h-0.8v-1.5H86v-0.4c0-1.4,0.7-2.1,2-2.1
			c0.6,0,1,0.1,1.3,0.2v1.5C89,291.3,88.7,291.2,88.4,291.2z"/>
		<path d="M90.3,291.4v-1.6h1.9v1.6H90.3z M90.3,298.5v-6.4h1.8v6.4H90.3z"/>
		<path d="M96,298.6c-1.1,0-1.9-0.4-1.9-1.9v-3h-0.8v-1.6h0.8v-1.6H96v1.6h1.5v1.6H96v2.7c0,0.4,0.2,0.6,0.6,0.6
			c0.3,0,0.6-0.1,0.9-0.2v1.5C97.1,298.5,96.6,298.6,96,298.6z"/>
	</g>
</g>
<g id="Layer_5">
</g>
</svg>
