<?xml version="1.0" encoding="utf-8"?>
<!-- Generator: Adobe Illustrator 19.1.0, SVG Export Plug-In . SVG Version: 6.00 Build 0)  -->
<svg version="1.1" xmlns="http://www.w3.org/2000/svg" xmlns:xlink="http://www.w3.org/1999/xlink" x="0px" y="0px"
	 viewBox="-277 376.1 55.7 41.9" style="enable-background:new -277 376.1 55.7 41.9;" xml:space="preserve">
<style type="text/css">
	.st0{fill:#231F20;}
	.st1{fill:#FFFFFF;}
	.st2{font-family:'Gotham-Black';}
	.st3{font-size:6.8018px;}
</style>
<g id="Layer_2">
	<rect x="-277" y="376.1" class="st0" width="55.7" height="41.9"/>
</g>
<g id="Layer_1">
	<g>
		<path class="st1" d="M-257.3,385v22h14.4v-22H-257.3z M-246.8,403.9h-1.7l-3.1-3.9v3.9h-2v-7.2h1.8l2.9,3.8v-3.8h2V403.9z"/>
	</g>
	<g>
		<path class="st1" d="M-274.8,393.1v13.8h14.4v-13.8H-274.8z M-266.7,403.9h-2v-7.2h2V403.9z"/>
	</g>
	<g>
		<path class="st1" d="M-239.2,378.4v28.6h14.4v-28.6H-239.2z M-231.8,404c-2,0-3.7-1.6-3.7-3.7v0c0-2.1,1.6-3.7,3.8-3.7
			c1.5,0,2.4,0.6,3,1.5l-1.5,1.2c-0.4-0.5-0.9-0.8-1.6-0.8c-1,0-1.7,0.8-1.7,1.9v0c0,1.1,0.7,1.9,1.7,1.9c0.7,0,1.2-0.3,1.6-0.9
			l1.5,1.1C-229.3,403.3-230.2,404-231.8,404z"/>
	</g>
	<text transform="matrix(1 0 0 1 -275.1903 415.0666)" class="st1 st2 st3">FINANCIAL</text>
</g>
</svg>
