<?xml version="1.0" encoding="utf-8"?>
<!-- Generator: Adobe Illustrator 19.1.0, SVG Export Plug-In . SVG Version: 6.00 Build 0)  -->
<svg version="1.1" id="Layer_1" xmlns="http://www.w3.org/2000/svg" xmlns:xlink="http://www.w3.org/1999/xlink" x="0px" y="0px"
	 viewBox="0 0 55.7 41.9" style="enable-background:new 0 0 55.7 41.9;" xml:space="preserve">
<style type="text/css">
	.st0{opacity:0.93;}
	.st1{fill:#FFFFFF;}
	.st2{opacity:0.93;fill:#FFFFFF;}
	.st3{font-family:'Gotham-Black';}
	.st4{font-size:7.5238px;}
</style>
<g class="st0">
	<path class="st1" d="M19.8,7.3v24.3h15.9V7.3H19.8z M31.4,28.2h-1.9l-3.4-4.3v4.3h-2.2v-7.9h2l3.3,4.2v-4.2h2.2V28.2z"/>
</g>
<g class="st0">
	<path class="st1" d="M0.5,16.3v15.3h15.9V16.3H0.5z M9.4,28.2H7.2v-7.9h2.2V28.2z"/>
</g>
<g class="st0">
	<path class="st1" d="M39.8,0v31.6h15.9V0H39.8z M48,28.4c-2.3,0-4.1-1.7-4.1-4.1v0c0-2.3,1.8-4.1,4.2-4.1c1.6,0,2.7,0.7,3.4,1.7
		l-1.7,1.3c-0.5-0.6-1-0.9-1.7-0.9c-1.1,0-1.9,0.9-1.9,2.1v0c0,1.2,0.8,2.1,1.9,2.1c0.8,0,1.3-0.4,1.8-1l1.7,1.2
		C50.7,27.6,49.7,28.4,48,28.4z"/>
</g>
<text transform="matrix(1 0 0 1 -2.193451e-04 40.6087)" class="st2 st3 st4">FINANCIAL</text>
</svg>
