<?xml version="1.0" encoding="utf-8"?>
<!-- Generator: Adobe Illustrator 19.1.0, SVG Export Plug-In . SVG Version: 6.00 Build 0)  -->
<svg version="1.1" id="Layer_1" xmlns="http://www.w3.org/2000/svg" xmlns:xlink="http://www.w3.org/1999/xlink" x="0px" y="0px"
	 viewBox="0 0 47.6 35" style="enable-background:new 0 0 47.6 35;" xml:space="preserve">
<style type="text/css">
	.st0{fill:#FFFFFF;}
</style>
<rect x="16.7" y="6.3" class="st0" width="13.7" height="20.9"/>
<rect x="33.9" class="st0" width="13.7" height="27.2"/>
<rect y="14" class="st0" width="13.7" height="13.1"/>
<g>
	<path class="st0" d="M20.2,17.5H22l2.8,3.6v-3.6h1.9v6.8H25l-2.9-3.7v3.7h-1.9V17.5z"/>
</g>
<g>
	<path class="st0" d="M5.8,17.5h1.9v6.8H5.8V17.5z"/>
</g>
<g>
	<path class="st0" d="M37.4,20.9L37.4,20.9c0-2,1.5-3.6,3.6-3.6c1.4,0,2.3,0.6,2.9,1.4l-1.4,1.1c-0.4-0.5-0.8-0.8-1.5-0.8
		c-1,0-1.6,0.8-1.6,1.8v0c0,1,0.7,1.8,1.6,1.8c0.7,0,1.1-0.3,1.5-0.8l1.4,1c-0.6,0.9-1.5,1.5-3,1.5C39,24.4,37.4,22.9,37.4,20.9z"/>
</g>
<g>
	<path class="st0" d="M0,30.4h3.6v1.1H1.3v0.8h2.1v1H1.3V35H0V30.4z"/>
	<path class="st0" d="M5.5,30.4h1.3V35H5.5V30.4z"/>
	<path class="st0" d="M8.9,30.4h1.2l1.9,2.4v-2.4h1.2V35h-1.1l-1.9-2.5V35H8.9V30.4z"/>
	<path class="st0" d="M16.9,30.4h1.2L20,35h-1.3l-0.3-0.8h-1.7L16.3,35h-1.3L16.9,30.4z M18,33.2l-0.5-1.3l-0.5,1.3H18z"/>
	<path class="st0" d="M21.7,30.4h1.2l1.9,2.4v-2.4H26V35h-1.1L23,32.5V35h-1.2V30.4z"/>
	<path class="st0" d="M28,32.7L28,32.7c0-1.3,1-2.4,2.4-2.4c0.9,0,1.5,0.4,1.9,0.9L31.3,32c-0.3-0.3-0.6-0.5-1-0.5
		c-0.6,0-1.1,0.5-1.1,1.2v0c0,0.7,0.4,1.2,1.1,1.2c0.5,0,0.8-0.2,1-0.5l0.9,0.7c-0.4,0.6-1,1-2,1C29,35,28,34.1,28,32.7z"/>
	<path class="st0" d="M34.2,30.4h1.3V35h-1.3V30.4z"/>
	<path class="st0" d="M39.1,30.4h1.2l1.9,4.6h-1.3l-0.3-0.8h-1.7L38.5,35h-1.3L39.1,30.4z M40.2,33.2l-0.5-1.3l-0.5,1.3H40.2z"/>
	<path class="st0" d="M44,30.4h1.3v3.4h2.2V35H44V30.4z"/>
</g>
</svg>
