<?xml version="1.0" encoding="utf-8"?>
<!-- Generator: Adobe Illustrator 19.1.0, SVG Export Plug-In . SVG Version: 6.00 Build 0)  -->
<svg version="1.1" id="Layer_1" xmlns="http://www.w3.org/2000/svg" xmlns:xlink="http://www.w3.org/1999/xlink" x="0px" y="0px"
	 viewBox="0 0 32 32" style="enable-background:new 0 0 32 32;" xml:space="preserve">
<style type="text/css">
	.st0{fill:#FFFFFF;}
	.st1{fill:none;stroke:#FFFFFF;stroke-width:1.0951;stroke-miterlimit:10;}
</style>
<g>
	<path class="st0" d="M16.4,27.7c0.4,0,0.7-0.3,0.7-0.7V25l0.8-0.8c4.1-4.1,4.5-8.3,4-11.1c-0.7-4.2-3.2-7.1-4-7.9l-1-1
		c-0.3-0.3-0.7-0.3-0.9,0l-1,1c-7.5,7.5-3.3,15.7,0,19l0.8,0.8V27C15.7,27.4,16,27.7,16.4,27.7z M15.8,6.1l0.5-0.5l0.5,0.5
		c0.7,0.7,3.1,3.3,3.7,7.1c0.6,3.6-0.6,6.9-3.5,9.8v-7.9c0-0.4-0.3-0.7-0.7-0.7c-0.4,0-0.7,0.3-0.7,0.7v7.9
		C12.8,20.1,9.2,12.8,15.8,6.1z"/>
</g>
<circle class="st1" cx="16" cy="16" r="15.5"/>
</svg>
