<?xml version="1.0" encoding="utf-8"?>
<!-- Generator: Adobe Illustrator 19.1.0, SVG Export Plug-In . SVG Version: 6.00 Build 0)  -->
<svg version="1.1" id="Layer_1" xmlns="http://www.w3.org/2000/svg" xmlns:xlink="http://www.w3.org/1999/xlink" x="0px" y="0px"
	 viewBox="0 0 11.9 12.4" style="enable-background:new 0 0 11.9 12.4;" xml:space="preserve">
<style type="text/css">
	.st0{fill:#657984;}
</style>
<g>
	<g>
		<path class="st0" d="M6.6,5.3L6.6,5.3C6.6,5.3,6.6,5.3,6.6,5.3L6.6,5.3z"/>
		<path class="st0" d="M10.8,0H1.1C0.5,0,0,0.5,0,1.2v10c0,0.6,0.5,1.2,1.1,1.2h9.7c0.6,0,1.1-0.5,1.1-1.2v-10
			C11.9,0.5,11.4,0,10.8,0z M2.4,1.9c0.6,0,0.9,0.4,0.9,1c0,0.6-0.4,1-0.9,1h0c-0.6,0-0.9-0.4-0.9-1C1.5,2.3,1.9,1.9,2.4,1.9z
			 M3.5,10.4H1.6V4.5h1.9L3.5,10.4L3.5,10.4z M10.4,10.4H8.5V7.3C8.5,6.6,8.3,6,7.7,6c-0.5,0-0.8,0.4-1,0.7c0,0.1-0.1,0.3-0.1,0.5
			v3.2H4.7c0,0,0-5.4,0-5.9h1.9v0.8c0.2-0.4,0.7-1,1.7-1c1.2,0,2.1,1,2.1,2.8L10.4,10.4L10.4,10.4z"/>
	</g>
</g>
</svg>
