<?xml version="1.0" encoding="utf-8"?>
<!-- Generator: Adobe Illustrator 19.1.0, SVG Export Plug-In . SVG Version: 6.00 Build 0)  -->
<svg version="1.1" id="Layer_1" xmlns="http://www.w3.org/2000/svg" xmlns:xlink="http://www.w3.org/1999/xlink" x="0px" y="0px"
	 viewBox="0 0 24.9 14.7" style="enable-background:new 0 0 24.9 14.7;" xml:space="preserve">
<style type="text/css">
	.st0{fill:#FFFFFF;}
</style>
<path class="st0" d="M24.5,0C24.5,0,24.5,0,24.5,0C24.5,0,24.5,0,24.5,0C24.4,0,24.4,0,24.5,0c-0.1,0-0.1,0-0.1,0c0,0,0,0,0,0
	s0,0,0,0H0.6C0.2,0,0,0.2,0,0.6v13.5c0,0,0,0.1,0,0.1c0,0,0,0,0,0.1c0,0,0,0,0,0.1s0,0,0,0.1c0,0,0,0,0,0c0,0.1,0.1,0.1,0.2,0.2
	c0,0,0,0,0,0c0,0,0,0,0.1,0c0,0,0,0,0.1,0c0,0,0,0,0.1,0c0,0,0.1,0,0.1,0h23.8h0c0,0,0.1,0,0.1,0c0,0,0,0,0.1,0s0,0,0.1,0s0,0,0.1,0
	c0,0,0,0,0,0c0.1,0,0.1-0.1,0.2-0.2c0,0,0,0,0,0c0,0,0,0,0-0.1c0,0,0,0,0-0.1c0,0,0,0,0-0.1c0,0,0-0.1,0-0.1V0.6v0c0,0,0,0,0-0.1
	c0,0,0,0,0-0.1c0,0,0,0,0-0.1s0,0,0-0.1c0,0,0,0,0,0c0,0,0,0,0-0.1c0,0,0,0,0,0l0,0c0,0,0,0,0,0c0,0,0,0,0,0c0,0,0,0,0,0
	c0,0,0,0,0,0C24.6,0.1,24.6,0,24.5,0C24.6,0,24.5,0,24.5,0C24.5,0,24.5,0,24.5,0z M22.7,1.1L22.7,1.1l-6.1,4.9
	c-0.1,0-0.1,0.1-0.2,0.1c0,0,0,0-0.1,0.1l-4.1,3.3l0,0L8.3,6.3l0,0c0,0-0.1-0.1-0.1-0.1L2.1,1.2l0,0H22.7z M1.1,3V1.9l5.9,4.9
	l-5.9,5.9V3z M23,13.5H2h0l6-6l4,3.3c0,0,0,0,0,0c0,0,0,0,0.1,0c0,0,0,0,0,0c0,0,0.1,0,0.1,0c0,0,0,0,0,0c0,0,0.1,0,0.1,0
	c0,0,0,0,0,0c0,0,0.1,0,0.1,0c0,0,0,0,0,0s0.1,0,0.1,0c0,0,0,0,0,0c0,0,0.1,0,0.1,0l0,0l4.2-3.4l0,0L23,13.5L23,13.5z M23.8,12.7
	l-6.1-6.1l6.1-4.9V12.7z"/>
</svg>
