<?xml version="1.0" encoding="utf-8"?>
<!-- Generator: Adobe Illustrator 19.1.0, SVG Export Plug-In . SVG Version: 6.00 Build 0)  -->
<svg version="1.1" id="Layer_1" xmlns="http://www.w3.org/2000/svg" xmlns:xlink="http://www.w3.org/1999/xlink" x="0px" y="0px"
	 viewBox="0 0 15.4 26.5" style="enable-background:new 0 0 15.4 26.5;" xml:space="preserve">
<style type="text/css">
	.st0{fill:#FFFFFF;}
</style>
<path class="st0" d="M13.1,0H2.4C1.1,0,0,1.1,0,2.4v21.7c0,1.3,1.1,2.4,2.4,2.4h10.7c1.3,0,2.4-1.1,2.4-2.4V2.4
	C15.4,1.1,14.4,0,13.1,0z M13,25.2H2.6c-0.7,0-1.3-0.6-1.3-1.3V2.4c0-0.7,0.6-1.3,1.3-1.3H13c0.7,0,1.3,0.6,1.3,1.3v21.4h0
	C14.3,24.6,13.7,25.2,13,25.2z"/>
<ellipse class="st0" cx="7.8" cy="23.6" rx="0.8" ry="0.8"/>
<path class="st0" d="M6.4,3.2l1.2,0H8h0h0.2h0.8h0.1c0.3,0,0.5-0.3,0.5-0.6c0-0.3-0.3-0.6-0.6-0.6v0H8.2H8h0H7.6H6.5H6.4
	c-0.3,0-0.5,0.3-0.5,0.6C5.9,2.9,6.1,3.2,6.4,3.2z"/>
<path class="st0" d="M13.3,5.4c-0.1-0.7-0.6-1.2-1.2-1.3c-0.2,0-0.4,0-0.4,0L4,4.1c-0.2,0-0.4,0-0.5,0C2.7,4.2,2.2,4.9,2.2,5.6v15.1
	c0,0.8,0.7,1.5,1.5,1.5h8.2c0.8,0,1.4-0.6,1.5-1.3c0-0.1,0-0.1,0-0.2c0-0.1,0-0.1,0-0.1l0-14.8c0-0.1,0-0.1,0-0.2
	C13.3,5.5,13.3,5.5,13.3,5.4z M12.1,20.3c0,0,0,0.1,0,0.2c0,0.2-0.2,0.4-0.4,0.4H3.8c-0.2,0-0.5-0.2-0.5-0.5V5.9
	c0-0.2,0.2-0.4,0.5-0.5l7.7,0c0,0,0.2,0,0.2,0c0.2,0,0.3,0.2,0.4,0.4L12.1,20.3z"/>
</svg>
