<?xml version="1.0" encoding="utf-8"?>
<!-- Generator: Adobe Illustrator 19.1.0, SVG Export Plug-In . SVG Version: 6.00 Build 0)  -->
<svg version="1.1" id="Layer_1" xmlns="http://www.w3.org/2000/svg" xmlns:xlink="http://www.w3.org/1999/xlink" x="0px" y="0px"
	 viewBox="0 0 54.7 14.9" style="enable-background:new 0 0 54.7 14.9;" xml:space="preserve">
<style type="text/css">
	.st0{fill:#657984;}
</style>
<path class="st0" d="M9.8,2.2c0-0.2,0.2-0.4,0.4-0.4c0.2,0,0.4,0.2,0.4,0.4c0,0.2-0.2,0.4-0.4,0.4C10,2.6,9.8,2.4,9.8,2.2z M8.4,7
	L9,8.1c-0.4-2.3,0.9-3.4,2.5-3.3c0.8,0,2.5,0.7,3.2,0.7c2.2,0.1,3.9-4,1.6-3.5c-1.2,0.2-3.4,0.6-4.4-0.3C7.2-2.6-0.8,1.7,0.1,8.4
	c0.5,3.9,3.3,6.9,7.9,6.5c1.7-0.1,3.1-0.7,4.3-1.8c1.4-1.3,2.1-2.8,2.1-4.7c0-0.5-0.2-0.9-0.5-1.3c-2.2-1.6-3.9,0.1-4.3,2.1
	c-0.5,2.7-2.3,5-4.6,4c-0.9-0.4-1.6-1.3-1-2.2c0.7-1.2,2.5,0.1,3.4-0.3C3.1,8.8,7,4.3,8.4,7L8.4,7z"/>
<path class="st0" d="M53.9,4.8v6.2h0.8V4.8H53.9z M27.5,7.8c0-0.9-0.3-1.6-0.9-2.3c-0.6-0.6-1.4-0.9-2.3-0.9c-1,0-1.8,0.4-2.4,1.3
	V4.8h-0.8v8.4h0.8V9.9c0.7,0.8,1.5,1.2,2.5,1.2c0.9,0,1.6-0.3,2.3-1C27.2,9.5,27.5,8.7,27.5,7.8L27.5,7.8z M25.5,5.7
	c0.4,0.2,0.7,0.5,0.9,0.9c0.2,0.4,0.3,0.8,0.3,1.2c0,0.4-0.1,0.8-0.3,1.2c-0.2,0.4-0.5,0.7-0.9,0.9c-0.4,0.2-0.8,0.3-1.2,0.3
	c-0.4,0-0.8-0.1-1.2-0.3c-0.8-0.5-1.2-1.2-1.2-2.1c0-0.7,0.2-1.3,0.7-1.8c0.5-0.5,1-0.7,1.7-0.7C24.7,5.4,25.1,5.5,25.5,5.7
	L25.5,5.7z M28.1,2.4v8.5h0.8V2.4H28.1z M32.6,4.6c-0.9,0-1.6,0.3-2.3,0.9c-0.6,0.6-0.9,1.4-0.9,2.3c0,0.9,0.3,1.7,0.9,2.3
	c0.6,0.6,1.4,1,2.3,1c1,0,1.8-0.4,2.5-1.2v1.1h0.8V4.8H35v1.1C34.4,5.1,33.6,4.6,32.6,4.6L32.6,4.6z M32.6,5.4
	c0.7,0,1.3,0.2,1.7,0.7c0.5,0.5,0.7,1.1,0.7,1.8c0,0.5-0.1,0.9-0.3,1.3c-0.2,0.4-0.5,0.7-0.9,0.9c-0.4,0.2-0.8,0.3-1.2,0.3
	c-0.4,0-0.8-0.1-1.2-0.3c-0.4-0.2-0.7-0.5-0.9-0.9c-0.2-0.4-0.3-0.8-0.3-1.2c0-0.4,0.1-0.9,0.3-1.2C31,5.8,31.7,5.4,32.6,5.4
	L32.6,5.4z M36.5,4.8v0.7h1.1v5.5h0.8V5.5h1.6l-0.3-0.7h-1.3V2.5h-0.8v2.3H36.5z M40.3,4.8l2.5,5.7l-1.2,2.7h0.8l3.7-8.4h-0.8
	l-2.1,4.7l-2.1-4.7H40.3z M53.2,7.8c0-0.9-0.3-1.6-0.9-2.3c-0.6-0.6-1.4-0.9-2.3-0.9c-1,0-1.8,0.4-2.4,1.3V4.8h-0.8v8.4h0.8V9.9
	c0.7,0.8,1.5,1.2,2.5,1.2c0.9,0,1.6-0.3,2.3-1C52.9,9.5,53.2,8.7,53.2,7.8L53.2,7.8z M51.1,5.7c0.4,0.2,0.7,0.5,0.9,0.9
	c0.2,0.4,0.3,0.8,0.3,1.2c0,0.4-0.1,0.8-0.3,1.2c-0.2,0.4-0.5,0.7-0.9,0.9c-0.4,0.2-0.8,0.3-1.2,0.3c-0.4,0-0.8-0.1-1.2-0.3
	c-0.8-0.5-1.2-1.2-1.2-2.1c0-0.7,0.2-1.3,0.7-1.8c0.5-0.5,1-0.7,1.7-0.7C50.4,5.4,50.8,5.5,51.1,5.7z"/>
</svg>
