<?xml version="1.0" encoding="utf-8"?>
<!-- Generator: Adobe Illustrator 19.1.0, SVG Export Plug-In . SVG Version: 6.00 Build 0)  -->
<svg version="1.1" id="Layer_1" xmlns="http://www.w3.org/2000/svg" xmlns:xlink="http://www.w3.org/1999/xlink" x="0px" y="0px"
	 viewBox="0 0 115.3 55.5" style="enable-background:new 0 0 115.3 55.5;" xml:space="preserve">
<style type="text/css">
	.st0{fill-rule:evenodd;clip-rule:evenodd;fill:none;stroke:#FFFFFF;stroke-width:0.9363;stroke-miterlimit:10;}
	.st1{fill-rule:evenodd;clip-rule:evenodd;fill:none;stroke:#FFFFFF;stroke-width:0.8679;stroke-miterlimit:10;}
	.st2{fill:none;stroke:#FFFFFF;stroke-width:0.9363;stroke-miterlimit:10;}
	.st3{fill-rule:evenodd;clip-rule:evenodd;fill:none;stroke:#FFFFFF;stroke-width:1.1579;stroke-miterlimit:10;}
	
		.st4{fill-rule:evenodd;clip-rule:evenodd;fill:none;stroke:#FFFFFF;stroke-width:0.5847;stroke-linecap:square;stroke-miterlimit:10;}
</style>
<g>
	<circle class="st0" cx="39.6" cy="37.2" r="3.7"/>
	<circle class="st0" cx="75.5" cy="37.2" r="3.8"/>
	<ellipse class="st1" cx="57.7" cy="37.2" rx="9.5" ry="11.6"/>
	<path class="st2" d="M84.2,22.2c0,0,1.8-1.3,1.6-4.9s0.6-5.5,3.4-6.3s18.9-7.6,18.9-7.6s1.1-0.4,1.1,0.2s-0.4,3.1-2,3.8
		S90.2,13,90.2,13s-2.3,0.3-2.5,6.3c-0.2,5.1-3.3,6.2-3.3,6.2"/>
	<path class="st2" d="M106.3,7.6l2-0.3c0,0,0.7-0.1,0.7,0.6s-0.8,2.9-2.3,3.4c-1.5,0.5-18.7,4.8-18.7,4.8"/>
	<path class="st2" d="M105.1,11.8l2.5-0.4c0,0,0.4,0.1,0.4,0.5c-0.1,0.4-0.5,2.8-2.4,3.1c-1.9,0.4-17.9,3.5-17.9,3.5"/>
	<path class="st2" d="M104.9,15.2c0,0,1.6-0.2,1.6,0.1c0.1,0.3-0.4,2.5-2.5,3.1c-2.1,0.6-16.5,2.3-16.5,2.3"/>
	<path class="st2" d="M102.1,18.7c0,0,1.5-0.2,1.4,0.3s-0.8,2.2-2.3,2.4c-1.5,0.2-14.1,1-14.1,1"/>
	<path class="st2" d="M96.4,21.9c0,0,0.5-0.1,0.2,0.6c-0.3,0.6-0.4,1-1.3,1c-0.9,0-8.6-0.5-8.6-0.5"/>
	<path class="st2" d="M93.5,23.6c0,0,0.6,0.1,0.3,0.6c-0.3,0.5-0.4,1-1.5,0.9c-1.1-0.1-6-1.1-6-1.1"/>
	<path class="st2" d="M90.5,24.8c0,0,0.7,0.2,0.4,0.5S90.4,26.4,89,26c-1.4-0.4-3.1-1.4-3.1-1.4"/>
	<path class="st2" d="M31.1,22.3c0,0-1.8-1.3-1.6-4.9c0.2-3.6-0.6-5.5-3.4-6.3S7.2,3.4,7.2,3.4S6.1,3,6.1,3.7s0.4,3.1,2,3.8
		s17.1,5.7,17.1,5.7s2.3,0.3,2.5,6.3c0.2,5.1,3.3,6.2,3.3,6.2"/>
	<path class="st2" d="M8.9,7.8l-2-0.3c0,0-0.7-0.1-0.7,0.6C6.3,8.7,7,11,8.5,11.5s18.7,4.8,18.7,4.8"/>
	<path class="st2" d="M10.1,11.9l-2.5-0.4c0,0-0.4,0.1-0.4,0.5c0.1,0.4,0.5,2.8,2.4,3.1c1.9,0.4,17.9,3.5,17.9,3.5"/>
	<path class="st2" d="M10.4,15.3c0,0-1.6-0.2-1.6,0.1s0.4,2.5,2.5,3.1c2.1,0.6,16.5,2.3,16.5,2.3"/>
	<path class="st2" d="M13.2,18.9c0,0-1.5-0.2-1.4,0.3s0.8,2.2,2.3,2.4c1.5,0.2,14.1,1,14.1,1"/>
	<path class="st2" d="M18.8,22.1c0,0-0.5-0.1-0.2,0.6c0.3,0.6,0.4,1,1.3,1c0.9,0,8.6-0.5,8.6-0.5"/>
	<path class="st2" d="M21.8,23.8c0,0-0.6,0.1-0.3,0.6c0.3,0.5,0.4,1,1.5,0.9c1.1-0.1,6-1.1,6-1.1"/>
	<path class="st2" d="M24.8,24.9c0,0-0.7,0.2-0.4,0.5c0.3,0.3,0.5,1.2,1.9,0.7c1.4-0.4,3.1-1.4,3.1-1.4"/>
	<rect x="30.8" y="22.2" class="st3" width="53.8" height="29.9"/>
	<path class="st4" d="M37.8,28.3h-2.6c-1,0-1.8-0.8-1.8-1.8v0c0-1,0.8-1.8,1.8-1.8h2.6c1,0,1.8,0.8,1.8,1.8v0
		C39.6,27.5,38.8,28.3,37.8,28.3z"/>
	<path class="st4" d="M80.2,28.3h-2.6c-1,0-1.8-0.8-1.8-1.8v0c0-1,0.8-1.8,1.8-1.8h2.6c1,0,1.8,0.8,1.8,1.8v0
		C82,27.5,81.2,28.3,80.2,28.3z"/>
	<path class="st4" d="M80.2,49.8h-2.6c-1,0-1.8-0.8-1.8-1.8v0c0-1,0.8-1.8,1.8-1.8h2.6c1,0,1.8,0.8,1.8,1.8v0
		C82,49,81.2,49.8,80.2,49.8z"/>
	<path class="st4" d="M37.8,49.8h-2.6c-1,0-1.8-0.8-1.8-1.8v0c0-1,0.8-1.8,1.8-1.8h2.6c1,0,1.8,0.8,1.8,1.8v0
		C39.6,49,38.8,49.8,37.8,49.8z"/>
</g>
</svg>
